<svg xmlns="http://www.w3.org/2000/svg" width="126.619" height="70.486" viewBox="0 0 126.619 70.486">
    <defs>
        <clipPath id="bb4vs95j5a">
            <path data-name="916" style="fill:#fff" d="M0 0h126.619v70.486H0z"/>
        </clipPath>
    </defs>
    <g data-name="4136">
        <g data-name="3458" style="clip-path:url(#bb4vs95j5a)">
            <path data-name="3435" d="M91.335 0h-56.04a35.242 35.242 0 1 0 0 70.484h56.072A35.242 35.242 0 1 0 91.335 0m4.646 65.418a30.894 30.894 0 0 1-4.65.352H35.3a30.527 30.527 0 0 1-4.656-60.7 30.848 30.848 0 0 1 4.656-.355h56.03a30.86 30.86 0 0 1 4.655.352 30.525 30.525 0 0 1 0 60.351" style="fill:#fff"/>
            <path data-name="3436" d="M509.1 235.271h-6.172v26.081h3.97v-9.807h2.338a6.218 6.218 0 0 0 6.02-6.147v-3.926a6.217 6.217 0 0 0-6.157-6.2m-.169 12.311h-2.03v-8.346h2.067a2.111 2.111 0 0 1 2.113 2.109v4.093a2.145 2.145 0 0 1-2.147 2.144" transform="translate(-455.466 -213.069)" style="fill:#fff"/>
            <path data-name="3437" d="M344.374 233.495a6.219 6.219 0 0 0-6.164 6.236v13.945a6.165 6.165 0 1 0 12.329 0v-13.945a6.219 6.219 0 0 0-6.165-6.236m2.194 9.8v10.428a2.194 2.194 0 1 1-4.388 0V239.68a2.194 2.194 0 1 1 4.388 0v3.62z" transform="translate(-306.293 -211.46)" style="fill:#fff"/>
            <path data-name="915" transform="translate(62.808 22.203)" style="fill:#fff" d="M0 0h3.97v26.081H0z"/>
            <path data-name="3438" d="M182.382 233.578a6.217 6.217 0 0 0-6.165 6.232v13.937a6.165 6.165 0 1 0 12.329 0v-8.219h-6.269v3.964h2.3v4.108a2.194 2.194 0 0 1-4.388 0v-13.775a2.194 2.194 0 0 1 4.388 0v1.321h3.97v-1.336a6.217 6.217 0 0 0-6.165-6.232" transform="translate(-159.587 -211.535)" style="fill:#fff"/>
            <path data-name="3439" d="M741.319 257.392h6.626v3.964H737v-3.464l6.645-18.652H737v-3.964h10.944v3.464z" transform="translate(-667.45 -213.072)" style="fill:#fff"/>
            <path data-name="3440" d="M884.623 257.392h6.626v3.964H880.3v-3.464l6.646-18.652H880.3v-3.964h10.944v3.464z" transform="translate(-797.231 -213.072)" style="fill:#fff"/>
            <path data-name="3441" d="M1015.679 235.283v-.008h-4.164v.008l-5.442 26.073h4.009l1.45-6.756h4.13l1.45 6.756h4.009zm-.879 15.317h-2.937l1.731-8.921 1.73 8.921z" transform="translate(-911.131 -213.072)" style="fill:#fff"/>
        </g>
    </g>
</svg>
