<svg width="280" height="156" viewBox="0 0 280 156" fill="none" xmlns="http://www.w3.org/2000/svg">
<g clip-path="url(#clip0_153_16684)">
<path d="M201.978 0H78.0515C35.0184 0 0 34.9855 0 78C0 98.8341 8.12278 118.42 22.8638 133.151C37.6047 147.883 57.2037 156 78.0515 156H202.047C245.041 155.951 280 120.975 280 78C280 35.0248 245.001 0.00982739 201.978 0ZM212.254 144.787C208.901 145.298 205.469 145.563 201.968 145.563H78.0515C74.5506 145.563 71.1088 145.298 67.7554 144.787C35.3036 139.834 10.4436 111.816 10.4436 78C10.4436 44.1839 35.3036 16.1661 67.7554 11.2131C71.1088 10.702 74.5506 10.4367 78.0515 10.4367H201.958C205.459 10.4367 208.891 10.702 212.254 11.2131C244.706 16.1661 269.566 44.1839 269.566 78C269.566 111.816 244.706 139.834 212.254 144.787Z" fill="white"/>
<path d="M60.0948 74.2854C60.557 74.2854 60.9504 74.7276 60.9504 75.1797L61.5502 94.7755C61.5502 95.3455 61.2651 95.9155 60.8619 96.2988C57.4299 99.5418 52.1687 101.448 46.6716 101.448C34.3104 101.448 26.0795 92.299 26.0795 78.58C26.0795 64.8609 34.3202 55.7116 46.6716 55.7116C50.9002 55.7116 55.3647 57.1071 58.6886 59.3969C59.1508 59.6524 59.318 60.1634 59.2 60.5369L56.3383 69.8729C56.1711 70.3151 55.7679 70.5117 55.2467 70.3839C52.8964 68.9884 49.8676 68.1629 47.0059 68.1629C41.7448 68.1629 38.1948 72.3592 38.1948 78.58C38.1948 84.8007 41.7448 89.1248 47.0059 89.1248C49.1202 89.1248 50.556 88.6825 51.1853 87.916V84.2307H45.9242C45.4129 84.2307 45.0687 83.9752 45.0097 83.533L46.1012 75.3664C46.0422 74.7276 46.3864 74.2854 47.0158 74.2854H60.0752H60.0948Z" fill="white"/>
<path d="M83.6371 101.448C71.453 101.448 63.3302 92.2988 63.3302 78.6388C63.3302 64.9787 71.453 55.7016 83.6371 55.7016C95.8213 55.7016 103.944 64.8509 103.944 78.6388C103.944 92.4266 95.8213 101.448 83.6371 101.448ZM83.6371 68.5362C78.9464 68.5362 75.7995 72.6047 75.7995 78.6388C75.7995 84.6728 78.9464 88.7413 83.6371 88.7413C88.3279 88.7413 91.4747 84.6728 91.4747 78.6388C91.4747 72.6047 88.3279 68.5362 83.6371 68.5362Z" fill="white"/>
<path d="M119.845 56.7237C129.856 56.7237 135.865 62.7577 135.865 71.848C135.865 80.9384 129.856 86.9724 119.845 86.9724H117.495V99.6792C117.495 100.121 117.092 100.564 116.581 100.564H106.344C105.94 100.564 105.547 100.121 105.547 99.6792V57.6868C105.547 57.1758 105.95 56.7335 106.344 56.7335H119.845V56.7237ZM120.367 75.5923C122.373 75.5923 123.74 74.069 123.74 71.848C123.74 69.6271 122.363 68.1038 120.367 68.1038H117.948C117.643 68.1038 117.387 68.3495 117.387 68.664V75.0419C117.387 75.3466 117.633 75.6021 117.948 75.6021H120.367V75.5923Z" fill="white"/>
<path d="M148.511 56.7237C149.023 56.7237 149.367 57.1659 149.367 57.6769V99.6694C149.367 100.112 149.023 100.554 148.511 100.554H138.382C137.979 100.554 137.586 100.112 137.586 99.6694V57.6769C137.586 57.1659 137.989 56.7237 138.382 56.7237H148.511Z" fill="white"/>
<path d="M182.635 89.1246C183.146 89.1246 183.49 89.5079 183.49 90.0189L182.428 99.6792C182.428 100.121 182.084 100.564 181.573 100.564H151.648C151.186 100.564 150.852 100.18 150.852 99.6792C150.852 99.4925 151.078 98.8537 151.422 98.0872L164.068 68.949C164.226 68.5854 163.96 68.1726 163.557 68.1726H152.848C152.445 68.1726 152.051 67.7304 152.051 67.2193L153.113 57.6868C153.113 57.1758 153.517 56.7335 153.91 56.7335H181.17C181.681 56.7335 182.025 57.1168 182.025 57.6868C182.025 57.9423 181.799 58.64 181.455 59.4066L168.917 88.3581C168.759 88.7217 169.025 89.1344 169.428 89.1344H182.625L182.635 89.1246Z" fill="white"/>
<path d="M215.362 89.1246C215.873 89.1246 216.217 89.5079 216.217 90.0189L215.155 99.6792C215.155 100.121 214.811 100.564 214.3 100.564H184.375C183.913 100.564 183.579 100.18 183.579 99.6792C183.579 99.4925 183.805 98.8537 184.149 98.0872L196.796 68.949C196.953 68.5854 196.687 68.1726 196.284 68.1726H185.575C185.172 68.1726 184.779 67.7304 184.779 67.2193L185.841 57.6868C185.841 57.1758 186.244 56.7335 186.637 56.7335H213.897C214.408 56.7335 214.752 57.1168 214.752 57.6868C214.752 57.9423 214.526 58.64 214.182 59.4066L201.644 88.3581C201.486 88.7217 201.752 89.1344 202.155 89.1344H215.352L215.362 89.1246Z" fill="white"/>
<path d="M256.232 99.7284C256.399 100.112 256.173 100.554 255.72 100.554H244.392C243.88 100.554 243.418 100.239 243.192 99.7284L241.579 93.4781C241.52 93.2324 241.294 93.0556 241.038 93.0556H231.145C230.89 93.0556 230.673 93.2324 230.604 93.4781L228.992 99.7284C228.766 100.239 228.303 100.554 227.792 100.554H216.463C216.001 100.554 215.775 100.112 215.952 99.7284L228.884 57.5492C229.051 57.1659 229.68 56.7237 230.26 56.7237H241.933C242.503 56.7237 243.133 57.1659 243.31 57.5492L256.241 99.7284H256.232ZM235.561 74.0101L233.191 83.2773C233.102 83.6311 233.368 83.975 233.732 83.975H238.472C238.835 83.975 239.101 83.6311 239.012 83.2773L236.642 74.0101C236.495 73.4499 235.708 73.4499 235.561 74.0101Z" fill="white"/>
</g>
<defs>
<clipPath id="clip0_153_16684">
<rect width="279.65" height="155.9" fill="white"/>
</clipPath>
</defs>
</svg>
