<svg xmlns="http://www.w3.org/2000/svg" width="39.437" height="30.345" viewBox="0 0 39.437 30.345">
    <path data-name="youtube" d="M39.437 13.07v6.358c-.009.073-.022.145-.025.218-.033.837-.051 1.676-.1 2.512a18.674 18.674 0 0 1-.477 3.337 6.2 6.2 0 0 1-4.225 4.637 17.967 17.967 0 0 1-3.478.8 54.1 54.1 0 0 1-6.455.442q-3.268.06-6.536.047a73.568 73.568 0 0 1-10.072-.527 14.817 14.817 0 0 1-3.742-.965 5.914 5.914 0 0 1-3.051-2.675 9.351 9.351 0 0 1-.912-2.92 30.213 30.213 0 0 1-.325-4.024c-.008-.281-.026-.561-.039-.841V13.03c.008-.072.022-.145.025-.218.046-.991.073-1.983.14-2.973A14.644 14.644 0 0 1 .729 6.56 5.927 5.927 0 0 1 3.9 2.761 12.293 12.293 0 0 1 6.919 1.8a38.141 38.141 0 0 1 6.475-.633q3.95-.1 7.9-.09a74.341 74.341 0 0 1 9.794.484 15.891 15.891 0 0 1 3.836.928 6 6 0 0 1 3.217 2.718 9.274 9.274 0 0 1 .93 2.955 30.391 30.391 0 0 1 .324 4.045c.008.287.026.574.039.861m-23.66 3.18v1.509c0 .818-.008 1.636 0 2.454a.867.867 0 0 0 1.045.941 1.656 1.656 0 0 0 .417-.139Q21.62 18.974 26 16.927a1.733 1.733 0 0 0 .389-.245.518.518 0 0 0-.01-.873 2.135 2.135 0 0 0-.447-.266Q21.6 13.518 17.264 11.5c-.892-.415-1.488-.034-1.489.947v3.8" transform="translate(0 -1.079)" style="fill:#fff;opacity:.698"/>
</svg>
