<svg xmlns="http://www.w3.org/2000/svg" width="39.946" height="39.921" viewBox="0 0 39.946 39.921">
    <g data-name="insta" style="opacity:.698">
        <path data-name="path_insta_1" d="M168.6.047c2.976 0 5.958-.123 8.927.028a11.145 11.145 0 0 1 10.2 7.16 10.12 10.12 0 0 1 .833 4.134c0 5.745.023 11.49-.006 17.235a11.445 11.445 0 0 1-9.679 11.161 12.993 12.993 0 0 1-1.894.145q-8.387.017-16.774 0a11.446 11.446 0 0 1-11.287-8.954 10.966 10.966 0 0 1-.277-2.435q-.035-8.543-.007-17.086A11.433 11.433 0 0 1 158.23.2a13.489 13.489 0 0 1 2.116-.163C163.1.023 165.85.034 168.6.034v.013m-.01 36.291h8.592a8.478 8.478 0 0 0 1.115-.072 7.614 7.614 0 0 0 6.592-7.525q.006-8.673 0-17.347a7.186 7.186 0 0 0-1.14-3.955 7.434 7.434 0 0 0-6.514-3.629c-5.666-.036-11.332-.012-17-.009-.36 0-.721.021-1.08.056a7.619 7.619 0 0 0-6.851 7.52q-.008 8.711 0 17.421a6.8 6.8 0 0 0 .094 1.15 7.626 7.626 0 0 0 7.602 6.39h8.592" transform="translate(-148.627)" style="fill:#fff"/>
        <path data-name="path_insta_2" d="M181.122 43.119a10.353 10.353 0 1 1 10.378-10.36 10.384 10.384 0 0 1-10.378 10.36m-.008-3.651a6.711 6.711 0 1 0-6.711-6.716 6.715 6.715 0 0 0 6.711 6.716" transform="translate(-161.153 -12.689)" style="fill:#fff"/>
        <path data-name="path_insta_3" d="M216.208 15.957a2.41 2.41 0 1 1-2.421 2.41 2.421 2.421 0 0 1 2.421-2.41" transform="translate(-185.518 -9.034)" style="fill:#fff"/>
    </g>
</svg>
