<svg xmlns="http://www.w3.org/2000/svg" width="40.321" height="40" viewBox="0 0 40.321 40">
    <g data-name="ico_facebook" style="opacity:.698">
        <path data-name="path_facebook" d="M437.584 1.179h-34.562a2.889 2.889 0 0 0-2.879 2.88V38.3a2.888 2.888 0 0 0 2.879 2.88h18.648V25.918h-5.141v-6.265h5.141v-5.462c0-9.316 12.529-6.746 12.529-6.746v5.462h-3.212a2.68 2.68 0 0 0-2.893 2.89v3.856h6.106l-.8 6.265h-5.3v15.261h9.491a2.889 2.889 0 0 0 2.88-2.88V4.059a2.89 2.89 0 0 0-2.88-2.88" transform="translate(-400.143 -1.179)" style="fill:#fff"/>
    </g>
</svg>
