<svg xmlns="http://www.w3.org/2000/svg" width="30.949" height="32.746" viewBox="0 0 30.949 32.746">
    <path data-name="ico_kakao" d="M297.339 1.079h.756c.035 0 .07.009.105.012.568.045 1.139.066 1.7.139a15.911 15.911 0 0 1 5.279 1.631 14.876 14.876 0 0 1 5.172 4.286 13.344 13.344 0 0 1 2.743 9.779 12.959 12.959 0 0 1-1.314 4.442 14.451 14.451 0 0 1-5.015 5.643 16.122 16.122 0 0 1-9 2.71 15.724 15.724 0 0 1-2.166-.133c-.3-.039-.6-.08-.9-.144a.324.324 0 0 0-.306.049q-2.8 2.093-5.616 4.179a.464.464 0 0 1-.529.108c-.2-.1-.217-.289-.217-.485v-6.59a.212.212 0 0 0-.093-.2 20.632 20.632 0 0 1-2.372-2.07 11.22 11.22 0 0 1-2.788-4.741A15.5 15.5 0 0 1 282.24 15a12.931 12.931 0 0 1 .587-3.549 13.859 13.859 0 0 1 4.017-6.246 15.829 15.829 0 0 1 9.742-4.086c.251-.018.5-.03.753-.044m.614 15.664c-.053 0-.091-.009-.13-.009h-1.972a.131.131 0 0 0-.15.108 2.929 2.929 0 0 1-.806 1.285 3.373 3.373 0 0 1-2.786.887 3.5 3.5 0 0 1-2.809-1.868 3.724 3.724 0 0 1-.372-2.484 3.378 3.378 0 0 1 1.482-2.358 3.658 3.658 0 0 1 2.745-.544A3.059 3.059 0 0 1 295.726 14c.028.093.064.122.16.122h1.96c.038 0 .076 0 .118-.005-.007-.048-.009-.083-.017-.117-.03-.126-.059-.253-.093-.377a5.343 5.343 0 0 0-5.364-4.026 5.815 5.815 0 0 0-2.024.35 5.493 5.493 0 0 0-3.187 2.851 5.949 5.949 0 0 0-.47 3.728 5.418 5.418 0 0 0 1.949 3.341 5.841 5.841 0 0 0 4.448 1.271 5.2 5.2 0 0 0 3.312-1.586 5.644 5.644 0 0 0 1.436-2.805m3.982-2.873-.029-.005V9.787c0-.118-.031-.152-.152-.151-.582.007-1.165 0-1.748 0-.042 0-.084 0-.135.006V20.8c0 .157 0 .157.163.157h1.7c.169 0 .169 0 .169-.169v-4.11a3.3 3.3 0 0 1 .062-.644 1.535 1.535 0 0 1 1.157-1.293 2.1 2.1 0 0 1 .947-.028 1.326 1.326 0 0 1 1.079.928 2.209 2.209 0 0 1 .1.648c.008 1.5 0 3 0 4.5 0 .169 0 .169.174.169h1.677c.18 0 .181 0 .181-.181v-4.759a4.338 4.338 0 0 0-.084-.855 2.831 2.831 0 0 0-1.777-2.178 3.316 3.316 0 0 0-1.812-.141 2.425 2.425 0 0 0-1.432.733c-.088.094-.166.2-.248.3" transform="translate(-282.234 -1.079)" style="fill:#fff;opacity:.698"/>
</svg>
