<svg xmlns="http://www.w3.org/2000/svg" width="320.285" height="644.834" viewBox="0 0 320.285 644.834">
    <g data-name="그룹 5703">
        <text data-name="1" transform="translate(51 16)" style="font-size:16px;font-family:SolanoGothicProMVB-Bd,Solano Gothic Pro MVB"><tspan x="-4.64" y="0">1</tspan></text>
        <text data-name="5" transform="translate(230 16)" style="font-size:16px;font-family:SolanoGothicProMVB-Bd,Solano Gothic Pro MVB"><tspan x="-6.4" y="0">5</tspan></text>
        <text data-name="3" transform="translate(141 16)" style="font-size:16px;font-family:SolanoGothicProMVB-Bd,Solano Gothic Pro MVB"><tspan x="-6.4" y="0">3</tspan></text>
        <text data-name="2" transform="translate(96 16)" style="font-size:16px;font-family:SolanoGothicProMVB-Bd,Solano Gothic Pro MVB"><tspan x="-6.4" y="0">2</tspan></text>
        <text data-name="6" transform="translate(275 16.165)" style="font-size:16px;font-family:SolanoGothicProMVB-Bd,Solano Gothic Pro MVB"><tspan x="-6.4" y="0">6</tspan></text>
        <text data-name="7" transform="translate(320 16)" style="font-size:16px;font-family:SolanoGothicProMVB-Bd,Solano Gothic Pro MVB"><tspan x="-6.4" y="0">7</tspan></text>
        <text data-name="4" transform="translate(186 16)" style="font-size:16px;font-family:SolanoGothicProMVB-Bd,Solano Gothic Pro MVB"><tspan x="-6.4" y="0">4</tspan></text>
        <text data-name="8" transform="translate(52 142.726)" style="font-size:16px;font-family:SolanoGothicProMVB-Bd,Solano Gothic Pro MVB"><tspan x="-6.4" y="0">8</tspan></text>
        <text data-name="12" transform="translate(229 142.726)" style="font-size:16px;font-family:SolanoGothicProMVB-Bd,Solano Gothic Pro MVB"><tspan x="-11.04" y="0">12</tspan></text>
        <text data-name="10" transform="translate(139 142.726)" style="font-size:16px;font-family:SolanoGothicProMVB-Bd,Solano Gothic Pro MVB"><tspan x="-11.04" y="0">10</tspan></text>
        <text data-name="9" transform="translate(94 142.726)" style="font-size:16px;font-family:SolanoGothicProMVB-Bd,Solano Gothic Pro MVB"><tspan x="-6.4" y="0">9</tspan></text>
        <text data-name="13" transform="translate(274 142.726)" style="font-size:16px;font-family:SolanoGothicProMVB-Bd,Solano Gothic Pro MVB"><tspan x="-11.04" y="0">13</tspan></text>
        <text data-name="14" transform="translate(320 142.726)" style="font-size:16px;font-family:SolanoGothicProMVB-Bd,Solano Gothic Pro MVB"><tspan x="-11.04" y="0">14</tspan></text>
        <text data-name="11" transform="translate(183 142.726)" style="font-size:16px;font-family:SolanoGothicProMVB-Bd,Solano Gothic Pro MVB"><tspan x="-9.28" y="0">11</tspan></text>
        <text data-name="15" transform="translate(51.129 269.373)" style="font-size:16px;font-family:SolanoGothicProMVB-Bd,Solano Gothic Pro MVB"><tspan x="-11.04" y="0">15</tspan></text>
        <text data-name="22" transform="translate(51 400.834)" style="font-size:16px;font-family:SolanoGothicProMVB-Bd,Solano Gothic Pro MVB"><tspan x="-12.8" y="0">22</tspan></text>
        <text data-name="29" transform="translate(50.995 532.294)" style="font-size:16px;font-family:SolanoGothicProMVB-Bd,Solano Gothic Pro MVB"><tspan x="-12.8" y="0">29</tspan></text>
        <text data-name="19" transform="translate(228.092 269.373)" style="font-size:16px;font-family:SolanoGothicProMVB-Bd,Solano Gothic Pro MVB"><tspan x="-11.04" y="0">19</tspan></text>
        <text data-name="26" transform="translate(227.766 400.834)" style="font-size:16px;font-family:SolanoGothicProMVB-Bd,Solano Gothic Pro MVB"><tspan x="-12.8" y="0">26</tspan></text>
        <text data-name="2" transform="translate(225.432 532.294)" style="opacity:.1;font-size:16px;font-family:SolanoGothicProMVB-Bd,Solano Gothic Pro MVB"><tspan x="-6.4" y="0">2</tspan></text>
        <text data-name="17" transform="translate(136.969 269.373)" style="font-size:16px;font-family:SolanoGothicProMVB-Bd,Solano Gothic Pro MVB"><tspan x="-11.04" y="0">17</tspan></text>
        <text data-name="24" transform="translate(136.928 400.834)" style="font-size:16px;font-family:SolanoGothicProMVB-Bd,Solano Gothic Pro MVB"><tspan x="-12.8" y="0">24</tspan></text>
        <text data-name="31" transform="translate(136.969 532.294)" style="font-size:16px;font-family:SolanoGothicProMVB-Bd,Solano Gothic Pro MVB"><tspan x="-11.04" y="0">31</tspan></text>
        <text data-name="16" transform="translate(91.407 269.373)" style="font-size:16px;font-family:SolanoGothicProMVB-Bd,Solano Gothic Pro MVB"><tspan x="-11.04" y="0">16</tspan></text>
        <text data-name="23" transform="translate(91.383 400.834)" style="font-size:16px;font-family:SolanoGothicProMVB-Bd,Solano Gothic Pro MVB"><tspan x="-12.8" y="0">23</tspan></text>
        <text data-name="30" transform="translate(91.377 532.294)" style="font-size:16px;font-family:SolanoGothicProMVB-Bd,Solano Gothic Pro MVB"><tspan x="-12.8" y="0">30</tspan></text>
        <text data-name="20" transform="translate(274.653 268.834)" style="font-size:16px;font-family:SolanoGothicProMVB-Bd,Solano Gothic Pro MVB"><tspan x="-12.8" y="0">20</tspan></text>
        <text data-name="21" transform="translate(320 268.834)" style="font-size:16px;font-family:SolanoGothicProMVB-Bd,Solano Gothic Pro MVB"><tspan x="-11.04" y="0">21</tspan></text>
        <text data-name="27" transform="translate(267.098 400.834)" style="font-size:16px;font-family:SolanoGothicProMVB-Bd,Solano Gothic Pro MVB"><tspan x="-12.8" y="0">27</tspan></text>
        <text data-name="28" transform="translate(320 400.834)" style="font-size:16px;font-family:SolanoGothicProMVB-Bd,Solano Gothic Pro MVB"><tspan x="-12.8" y="0">28</tspan></text>
        <text data-name="3" transform="translate(264.645 532.294)" style="opacity:.1;font-size:16px;font-family:SolanoGothicProMVB-Bd,Solano Gothic Pro MVB"><tspan x="-6.4" y="0">3</tspan></text>
        <text data-name="18" transform="translate(182.53 269.373)" style="font-size:16px;font-family:SolanoGothicProMVB-Bd,Solano Gothic Pro MVB"><tspan x="-11.04" y="0">18</tspan></text>
        <text data-name="25" transform="translate(182.471 400.834)" style="font-size:16px;font-family:SolanoGothicProMVB-Bd,Solano Gothic Pro MVB"><tspan x="-12.8" y="0">25</tspan></text>
        <text data-name="1" transform="translate(179.614 532.294)" style="opacity:.1;font-size:16px;font-family:SolanoGothicProMVB-Bd,Solano Gothic Pro MVB"><tspan x="-4.64" y="0">1</tspan></text>
        <path data-name="사각형 2101" transform="translate(.25 283.343)" style="fill:#ff4600" d="M0 0h319.414v90H0z"/>
        <path data-name="사각형 2102" transform="translate(.25 415.206)" style="fill:#ff4600" d="M0 0h182.558v90H0z"/>
        <path data-name="사각형 1011" transform="translate(182.809 415.206)" style="fill:#171c8f" d="M0 0h45.452v90H0z"/>
        <text data-name="행정 업무" transform="translate(207 456.206)" style="fill:#fff;font-size:14px;font-family:SourceHanSansK-Bold,Source Han Sans K;font-weight:700"><tspan x="-12.88" y="0">행정</tspan><tspan x="-12.88" y="20">업무</tspan></text>
        <path data-name="사각형 2103" transform="translate(.25 545.979)" style="fill:#ff4600" d="M0 0h45.452v90H0z"/>
        <text data-name="최종 점검" transform="translate(25 586.979)" style="fill:#fff;font-size:14px;font-family:SourceHanSansK-Bold,Source Han Sans K;font-weight:700"><tspan x="-12.88" y="0">최종</tspan><tspan x="-12.88" y="20">점검</tspan></text>
        <path data-name="사각형 2104" transform="translate(45.702 545.979)" style="fill:#171c8f" d="M0 0h45.452v90H0z"/>
        <text data-name="매장 오픈" transform="translate(68.428 586.979)" style="fill:#fff;font-size:14px;font-family:SourceHanSansK-Bold,Source Han Sans K;font-weight:700"><tspan x="-12.88" y="0">매장</tspan><tspan x="-12.88" y="20">오픈</tspan></text>
        <path data-name="사각형 2098" transform="translate(139 25.834)" style="fill:#ff4600" d="M0 0h136v90H0z"/>
        <path data-name="사각형 2096" transform="translate(43.934 25.834)" style="fill:#171c8f" d="M0 0h95.066v90H0z"/>
        <path data-name="사각형 2097" transform="translate(0 25.834)" style="fill:#ff4600" d="M0 0h43.934v90H0z"/>
        <text data-name="가맹 상담" transform="translate(5.967 50.834)" style="fill:#fff;font-size:14px;font-family:SourceHanSansK-Bold,Source Han Sans K;font-weight:700"><tspan x="3.12" y="16">가맹</tspan><tspan x="3.12" y="36">상담</tspan></text>
        <text data-name="실측 및 도면 작업" transform="translate(160 60.834)" style="fill:#fff;font-size:14px;font-family:SourceHanSansK-Bold,Source Han Sans K;font-weight:700"><tspan x=".153" y="16">실측 및 도면 작업</tspan></text>
        <text data-name="상권 분석 및 입지 선정" transform="translate(55 51.834)" style="fill:#fff;font-size:14px;font-family:SourceHanSansK-Bold,Source Han Sans K;font-weight:700"><tspan x="1.622" y="16">상권 분석 및 </tspan><tspan x="9.651" y="36">입지 선정</tspan></text>
        <path data-name="사각형 2099" transform="translate(90.905 151.834)" style="fill:#ff4600" d="M0 0h228.51v90H0z"/>
        <text data-name="인테리어 시공 및 본사 교육 진행" transform="translate(160 334.343)" style="fill:#fff;font-size:14px;font-family:SourceHanSansK-Bold,Source Han Sans K;font-weight:700"><tspan x="-91.665" y="0">인테리어 시공 및 본사 교육 진행</tspan></text>
        <path data-name="사각형 2100" transform="translate(0 151.834)" style="fill:#171c8f" d="M0 0h90.904v90H0z"/>
        <text data-name="장비 기물 및 인테리어 견적 확인" transform="translate(47.129 186.226)" style="fill:#fff;font-size:14px;font-family:SourceHanSansK-Bold,Source Han Sans K;font-weight:700"><tspan x="-36.967" y="0">장비 기물 및 </tspan><tspan x="-27.349" y="20">인테리어 </tspan><tspan x="-27.349" y="40">견적 확인</tspan></text>
        <path data-name="선 41" transform="translate(0 1.834)" style="fill:none;stroke:#707070" d="M0 0h320"/>
        <path data-name="선 47" transform="translate(0 381.834)" style="fill:none;stroke:#707070" d="M0 0h320"/>
        <path data-name="선 44" transform="translate(.286 123.834)" style="fill:none;stroke:#707070" d="M0 0h320"/>
        <path data-name="선 46" transform="translate(.286 513.334)" style="fill:none;stroke:#707070" d="M0 0h320"/>
        <path data-name="선 43" transform="translate(0 249.834)" style="fill:none;stroke:#707070" d="M0 0h320"/>
        <path data-name="선 45" transform="translate(0 644.334)" style="fill:none;stroke:#707070" d="M0 0h320"/>
    </g>
</svg>
