<svg xmlns="http://www.w3.org/2000/svg" width="42.107" height="42.184" viewBox="0 0 42.107 42.184">
    <path data-name="Icon feather-phone-call" d="M27.944 9.16a9.575 9.575 0 0 1 7.564 7.564M27.944 1.5a17.235 17.235 0 0 1 15.224 15.2m-1.915 15.286v5.745a3.83 3.83 0 0 1-4.175 3.83 37.9 37.9 0 0 1-16.526-5.879 37.342 37.342 0 0 1-11.49-11.49A37.9 37.9 0 0 1 3.183 7.59a3.83 3.83 0 0 1 3.811-4.175h5.745a3.83 3.83 0 0 1 3.83 3.294 24.588 24.588 0 0 0 1.34 5.381 3.83 3.83 0 0 1-.862 4.041l-2.432 2.432a30.639 30.639 0 0 0 11.49 11.49l2.432-2.432a3.83 3.83 0 0 1 4.041-.862 24.588 24.588 0 0 0 5.381 1.34 3.83 3.83 0 0 1 3.294 3.887z" transform="translate(-2.166 -.396)" style="fill:none;stroke:#feffff;stroke-linecap:round;stroke-linejoin:round;stroke-width:2px"/>
</svg>
