<svg data-name="그룹 5517" xmlns="http://www.w3.org/2000/svg" width="120.678" height="67.277" viewBox="0 0 120.678 67.277">
    <defs>
        <clipPath id="8z8zb8eyka">
            <path data-name="사각형 1968" style="fill:none" d="M0 0h120.678v67.277H0z"/>
        </clipPath>
    </defs>
    <g data-name="그룹 5517" style="clip-path:url(#8z8zb8eyka)">
        <path data-name="패스 7051" d="M87.049 0h-53.41a33.638 33.638 0 1 0 0 67.277H87.08A33.639 33.639 0 0 0 87.049 0" transform="translate(-.001)" style="fill:#fff"/>
        <path data-name="패스 7052" d="M226.532 72.937h3.3l-1.649-8.515z" transform="translate(-130.523 -37.119)" style="fill:#ff4600"/>
        <path data-name="패스 7053" d="M82.793 58.557a2.111 2.111 0 0 0-2.093 2.118v13.407a2.091 2.091 0 1 0 4.182 0V60.675a2.111 2.111 0 0 0-2.091-2.118" transform="translate(-46.499 -33.739)" style="fill:#ff4600"/>
        <path data-name="패스 7054" d="M117.626 58.931h-1.969V66.9h1.937a2.046 2.046 0 0 0 2.046-2.046v-3.909a2.014 2.014 0 0 0-2.014-2.014" transform="translate(-66.639 -33.955)" style="fill:#ff4600"/>
        <path data-name="패스 7055" d="M97.593 10.956a29.381 29.381 0 0 0-4.436-.336h-53.4a29.141 29.141 0 0 0-4.437 57.941 29.4 29.4 0 0 0 4.437.336h53.406a29.141 29.141 0 0 0 4.43-57.941M33.717 34.383h-3.783v-1.262a2.091 2.091 0 0 0-4.183 0V46.27a2.091 2.091 0 0 0 4.183 0v-3.921h-2.191v-3.784h5.975v7.845a5.876 5.876 0 1 1-11.75 0v-13.3a5.876 5.876 0 1 1 11.75 0zm14.57 12.031a5.876 5.876 0 1 1-11.75 0V33.1a5.876 5.876 0 1 1 11.75 0zM63.1 36.978a5.931 5.931 0 0 1-5.738 5.868h-2.227v9.36h-3.783V27.311h5.882a5.93 5.93 0 0 1 5.868 5.92zm6.661 15.228h-3.782V27.311h3.784zm13.074-21.588-6.315 17.8h6.315v3.784H72.4V48.9l6.334-17.8H72.4v-3.789h10.435zm12.889 0-6.315 17.8h6.315v3.784h-10.43V48.9l6.334-17.8h-6.334v-3.789h10.43zm11.4 21.588-1.382-6.448h-3.936l-1.382 6.448h-3.819l5.186-24.886v-.008h3.968v.008l5.186 24.886z" transform="translate(-6.118 -6.119)" style="fill:#ff4600"/>
        <path data-name="패스 7056" d="M87.049 0H33.638a33.638 33.638 0 0 0 0 67.277h53.441A33.639 33.639 0 0 0 87.049 0m0 65.619H33.638a31.981 31.981 0 1 1 0-63.962h53.41a31.981 31.981 0 0 1 0 63.962" style="fill:#ff4600"/>
    </g>
</svg>
