<svg xmlns="http://www.w3.org/2000/svg" width="32" height="32" viewBox="0 0 32 32">
    <defs>
        <clipPath id="8reocwg8ha">
            <path data-name="사각형 1231" transform="translate(-2 -2)" style="fill:#fff;stroke:#fff;stroke-width:.5px" d="M0 0h20.35v20.91H0z"/>
        </clipPath>
    </defs>
    <g transform="translate(-320 -779)">
        <rect data-name="사각형 1143" width="32" height="32" rx="4" transform="translate(320 779)" style="fill:#ff4600"/>
        <g data-name="그룹 4272">
            <g data-name="그룹 4271" style="clip-path:url(#8reocwg8ha)" transform="translate(327.825 786.545)">
                <path data-name="패스 6591" d="M183.554 74.177a.306.306 0 0 1-.306-.307 4.772 4.772 0 0 0-4.711-4.768.306.306 0 0 1 0-.613 5.381 5.381 0 0 1 4.777 3.037 5.331 5.331 0 0 1 .539 2.345.306.306 0 0 1-.306.306" transform="translate(-170.432 -65.491)" style="fill:#fff;stroke:#fff;stroke-width:.5px"/>
                <path data-name="패스 6592" d="M186.476 10.356a.306.306 0 0 1-.306-.307 7.7 7.7 0 0 0-7.631-7.69.306.306 0 0 1 0-.613 8.3 8.3 0 0 1 7.408 4.686 8.224 8.224 0 0 1 .831 3.617.306.306 0 0 1-.306.306" transform="translate(-170.432 -1.67)" style="fill:#fff;stroke:#fff;stroke-width:.5px"/>
                <path data-name="패스 6593" d="M12.74 16.91A8 8 0 0 1 8.5 15.3a23.865 23.865 0 0 1-4-3.483 20.667 20.667 0 0 1-3.828-5.5A7.128 7.128 0 0 1 0 3.581a3.5 3.5 0 0 1 .81-2.363l.606-.745A1.282 1.282 0 0 1 3.348.407l2.175 2.331a1.24 1.24 0 0 1 .064 1.609l-.992 1.331c.095.283.547 1.255 2.682 3.543s3.069 2.8 3.35 2.92l1.395-.9a1.234 1.234 0 0 1 1.6.175L15.8 13.75a1.282 1.282 0 0 1-.2 1.923l-.782.551a3.3 3.3 0 0 1-2.075.687M2.411.613a.667.667 0 0 0-.519.247l-.608.748v.005C-.643 3.874 1.91 8.151 4.941 11.4c2.861 3.067 5.777 4.9 7.8 4.9a2.7 2.7 0 0 0 1.7-.562l.012-.009.788-.555a.669.669 0 0 0 .1-1l-2.175-2.331a.621.621 0 0 0-.808-.087l-.009.006-1.519.976a.306.306 0 0 1-.194.047c-.162-.015-1.106-.237-3.815-3.142C4.1 6.711 3.959 5.767 3.959 5.608a.306.306 0 0 1 .061-.183L5.1 3.977l.007-.009a.624.624 0 0 0-.031-.812L2.9.825a.662.662 0 0 0-.489-.212" style="fill:#fff;stroke:#fff;stroke-width:.5px"/>
            </g>
        </g>
    </g>
</svg>
