<?xml version="1.0" encoding="utf-8"?>
<!-- Generator: Adobe Illustrator 27.2.0, SVG Export Plug-In . SVG Version: 6.00 Build 0)  -->
<svg version="1.1" xmlns="http://www.w3.org/2000/svg" xmlns:xlink="http://www.w3.org/1999/xlink" x="0px" y="0px"
	 viewBox="0 0 144 144" style="enable-background:new 0 0 144 144;" xml:space="preserve">
<style type="text/css">
	.st0{fill:#FF2800;}
	.st1{fill:#FFFFFF;}
	.st2{display:none;}
	.st3{display:inline;}
	.st4{opacity:0.4;fill:#00FF00;}
</style>
<g id="원본_파일">
	<rect x="0" y="0" class="st0" width="144" height="144"/>
	<g>
		<path id="XMLID_00000039096341776267352970000013123412341189167788_" class="st1" d="M98.57,26.02L98.57,26.02
			c-11.79,0-21.43,9.77-21.43,21.71v48.55c0,11.94,9.64,21.71,21.43,21.71c11.79,0,21.43-9.77,21.43-21.71V75.91V62.52v-2.29V57.8
			V47.72C120,35.79,110.36,26.02,98.57,26.02 M106.2,60.15L106.2,60.15v15.79v14.14v6.37c0,4.25-3.43,7.73-7.63,7.73
			c-4.19,0-7.63-3.48-7.63-7.73v-48.9c0-4.25,3.43-7.73,7.63-7.73c4.2,0,7.63,3.48,7.63,7.73V57.7V60.15z"/>
		<path id="XMLID_00000138561648775033964740000009091421430592198046_" class="st1" d="M45.43,26.04L45.43,26.04
			C33.64,26.04,24,35.81,24,47.74v48.52c0,11.93,9.64,21.7,21.43,21.7c11.79,0,21.43-9.76,21.43-21.7V67.65H52.78h-7.71v13.8h7.99
			v14.3c0,4.17-3.43,7.58-7.63,7.58c-4.19,0-7.63-3.41-7.63-7.58V47.79c0-4.17,3.43-7.58,7.63-7.58c4.2,0,7.63,3.41,7.63,7.58v4.6
			h13.8v-4.65C66.86,35.81,57.22,26.04,45.43,26.04"/>
	</g>
</g>
<g id="가이드_라인" class="st2">
	<g class="st3">
		<rect y="120" class="st4" width="144" height="24"/>
		<g>
			<rect class="st4" width="144" height="24"/>
			<rect x="60" y="60" transform="matrix(-1.836970e-16 1 -1 -1.836970e-16 204 -60)" class="st4" width="144" height="24"/>
			<rect x="-60" y="60" transform="matrix(-1.836970e-16 1 -1 -1.836970e-16 84 60)" class="st4" width="144" height="24"/>
		</g>
	</g>
</g>
</svg>
