<svg xmlns="http://www.w3.org/2000/svg" width="321" height="211.248" viewBox="0 0 321 211.248">
    <defs>
        <clipPath id="dgwa7ugf5a">
            <path data-name="사각형 1119" style="fill:none" d="M0 0h175.475v49.725H0z"/>
        </clipPath>
    </defs>
    <g data-name="그룹 5538">
        <g data-name="그룹 5163">
            <g data-name="그룹 4171">
                <path data-name="선 3" transform="translate(.5 26)" style="stroke:#ededed;fill:none" d="M0 0v185"/>
                <path data-name="선 66" transform="translate(176.5 26)" style="stroke:#ededed;fill:none" d="M0 0v185"/>
                <path data-name="선 34" transform="translate(88.5 26)" style="stroke:#ededed;fill:none" d="M0 0v185"/>
                <path data-name="선 50" transform="translate(265.5 26)" style="stroke:#ededed;fill:none" d="M0 0v185"/>
                <path data-name="선 18" transform="translate(44.5 26)" style="stroke:#ededed;fill:none" d="M0 0v185"/>
                <path data-name="선 58" transform="translate(221.5 26)" style="stroke:#ededed;fill:none" d="M0 0v185"/>
                <path data-name="선 26" transform="translate(133.5 26)" style="stroke:#ededed;fill:none" d="M0 0v185"/>
                <path data-name="선 40" transform="translate(310.5 26)" style="stroke:#ededed;fill:none" d="M0 0v185"/>
                <path data-name="선 10" transform="translate(23.5 26)" style="stroke:#ededed;fill:none" d="M0 0v185"/>
                <path data-name="선 62" transform="translate(199.5 26)" style="stroke:#ededed;fill:none" d="M0 0v185"/>
                <path data-name="선 30" transform="translate(111.5 26)" style="stroke:#ededed;fill:none" d="M0 0v185"/>
                <path data-name="선 45" transform="translate(287.5 26)" style="stroke:#ededed;fill:none" d="M0 0v185"/>
                <path data-name="선 14" transform="translate(67.5 26)" style="stroke:#ededed;fill:none" d="M0 0v185"/>
                <path data-name="선 54" transform="translate(243.5 26)" style="stroke:#ededed;fill:none" d="M0 0v185"/>
                <path data-name="선 22" transform="translate(154.5 26)" style="stroke:#ededed;fill:none" d="M0 0v185"/>
                <path data-name="선 6" transform="translate(10.5 26)" style="stroke:#ededed;fill:none" d="M0 0v185"/>
                <path data-name="선 64" transform="translate(187.5 26)" style="stroke:#ededed;fill:none" d="M0 0v185"/>
                <path data-name="선 32" transform="translate(99.5 26)" style="stroke:#ededed;fill:none" d="M0 0v185"/>
                <path data-name="선 46" transform="translate(276.5 26)" style="stroke:#ededed;fill:none" d="M0 0v185"/>
                <path data-name="선 16" transform="translate(55.5 26)" style="stroke:#ededed;fill:none" d="M0 0v185"/>
                <path data-name="선 56" transform="translate(232.5 26)" style="stroke:#ededed;fill:none" d="M0 0v185"/>
                <path data-name="선 23" transform="translate(144.5 26)" style="stroke:#ededed;fill:none" d="M0 0v185"/>
                <path data-name="선 8" transform="translate(33.5 26)" style="stroke:#ededed;fill:none" d="M0 0v185"/>
                <path data-name="선 60" transform="translate(209.5 26)" style="stroke:#ededed;fill:none" d="M0 0v185"/>
                <path data-name="선 27" transform="translate(121.5 26)" style="stroke:#ededed;fill:none" d="M0 0v185"/>
                <path data-name="선 42" transform="translate(297.5 26)" style="stroke:#ededed;fill:none" d="M0 0v185"/>
                <path data-name="선 12" transform="translate(77.5 26)" style="stroke:#ededed;fill:none" d="M0 0v185"/>
                <path data-name="선 52" transform="translate(253.5 26)" style="stroke:#ededed;fill:none" d="M0 0v185"/>
                <path data-name="선 20" transform="translate(166.5 26)" style="stroke:#ededed;fill:none" d="M0 0v185"/>
                <path data-name="선 4" transform="translate(5.5 26)" style="stroke:#ededed;fill:none" d="M0 0v185"/>
                <path data-name="선 65" transform="translate(183.5 26)" style="stroke:#ededed;fill:none" d="M0 0v185"/>
                <path data-name="선 33" transform="translate(94.5 26)" style="stroke:#ededed;fill:none" d="M0 0v185"/>
                <path data-name="선 49" transform="translate(271.5 26)" style="stroke:#ededed;fill:none" d="M0 0v185"/>
                <path data-name="선 17" transform="translate(49.5 26)" style="stroke:#ededed;fill:none" d="M0 0v185"/>
                <path data-name="선 57" transform="translate(226.5 26)" style="stroke:#ededed;fill:none" d="M0 0v185"/>
                <path data-name="선 24" transform="translate(137.5 26)" style="stroke:#ededed;fill:none" d="M0 0v185"/>
                <path data-name="선 43" transform="translate(315.5 26)" style="stroke:#ededed;fill:none" d="M0 0v185"/>
                <path data-name="선 9" transform="translate(28.5 26)" style="stroke:#ededed;fill:none" d="M0 0v185"/>
                <path data-name="선 61" transform="translate(205.5 26)" style="stroke:#ededed;fill:none" d="M0 0v185"/>
                <path data-name="선 28" transform="translate(115.5 26)" style="stroke:#ededed;fill:none" d="M0 0v185"/>
                <path data-name="선 47" transform="translate(292.5 26)" style="stroke:#ededed;fill:none" d="M0 0v185"/>
                <path data-name="선 13" transform="translate(72.5 26)" style="stroke:#ededed;fill:none" d="M0 0v185"/>
                <path data-name="선 53" transform="translate(248.5 26)" style="stroke:#ededed;fill:none" d="M0 0v185"/>
                <path data-name="선 21" transform="translate(161.5 26)" style="stroke:#ededed;fill:none" d="M0 0v185"/>
                <path data-name="선 5" transform="translate(16.5 26)" style="stroke:#ededed;fill:none" d="M0 0v185"/>
                <path data-name="선 63" transform="translate(193.5 26)" style="stroke:#ededed;fill:none" d="M0 0v185"/>
                <path data-name="선 31" transform="translate(105.5 26)" style="stroke:#ededed;fill:none" d="M0 0v185"/>
                <path data-name="선 48" transform="translate(281.5 26)" style="stroke:#ededed;fill:none" d="M0 0v185"/>
                <path data-name="선 15" transform="translate(62.5 26)" style="stroke:#ededed;fill:none" d="M0 0v185"/>
                <path data-name="선 55" transform="translate(238.5 26)" style="stroke:#ededed;fill:none" d="M0 0v185"/>
                <path data-name="선 25" transform="translate(149.5 26)" style="stroke:#ededed;fill:none" d="M0 0v185"/>
                <path data-name="선 7" transform="translate(39.5 26)" style="stroke:#ededed;fill:none" d="M0 0v185"/>
                <path data-name="선 59" transform="translate(215.5 26)" style="stroke:#ededed;fill:none" d="M0 0v185"/>
                <path data-name="선 29" transform="translate(127.5 26)" style="stroke:#ededed;fill:none" d="M0 0v185"/>
                <path data-name="선 44" transform="translate(304.5 26)" style="stroke:#ededed;fill:none" d="M0 0v185"/>
                <path data-name="선 11" transform="translate(82.5 26)" style="stroke:#ededed;fill:none" d="M0 0v185"/>
                <path data-name="선 51" transform="translate(258.5 26)" style="stroke:#ededed;fill:none" d="M0 0v185"/>
                <path data-name="선 19" transform="translate(171.5 26)" style="stroke:#ededed;fill:none" d="M0 0v185"/>
                <path data-name="선 66" transform="rotate(90 57.604 262.675)" style="stroke:#ededed;fill:none" d="M0 0v319.779"/>
                <path data-name="선 34" transform="rotate(90 104.056 216.223)" style="stroke:#ededed;fill:none" d="M0 0v319.779"/>
                <path data-name="선 18" transform="rotate(90 125.733 194.546)" style="stroke:#ededed;fill:none" d="M0 0v319.779"/>
                <path data-name="선 26" transform="rotate(90 82.12 238.159)" style="stroke:#ededed;fill:none" d="M0 0v319.779"/>
                <path data-name="선 10" transform="rotate(90 136.83 183.449)" style="stroke:#ededed;fill:none" d="M0 0v319.779"/>
                <path data-name="선 30" transform="rotate(90 92.959 227.32)" style="stroke:#ededed;fill:none" d="M0 0v319.779"/>
                <path data-name="선 14" transform="rotate(90 114.894 205.385)" style="stroke:#ededed;fill:none" d="M0 0v319.779"/>
                <path data-name="선 22" transform="rotate(90 71.282 248.997)" style="stroke:#ededed;fill:none" d="M0 0v319.779"/>
                <path data-name="선 6" transform="rotate(90 142.25 178.03)" style="stroke:#ededed;fill:none" d="M0 0v319.779"/>
                <path data-name="선 64" transform="rotate(90 60.295 260.204)" style="stroke:#ededed;fill:none" d="M0 0v319.999"/>
                <path data-name="선 32" transform="rotate(90 98.378 221.9)" style="stroke:#ededed;fill:none" d="M0 0v319.779"/>
                <path data-name="선 16" transform="rotate(90 120.314 199.965)" style="stroke:#ededed;fill:none" d="M0 0v319.779"/>
                <path data-name="선 23" transform="rotate(90 76.701 243.578)" style="stroke:#ededed;fill:none" d="M0 0v319.779"/>
                <path data-name="선 8" transform="rotate(90 131.153 189.126)" style="stroke:#ededed;fill:none" d="M0 0v319.779"/>
                <path data-name="선 27" transform="rotate(90 87.54 232.739)" style="stroke:#ededed;fill:none" d="M0 0v319.779"/>
                <path data-name="선 12" transform="rotate(90 109.475 210.804)" style="stroke:#ededed;fill:none" d="M0 0v319.779"/>
                <path data-name="선 20" transform="rotate(90 65.604 254.674)" style="stroke:#ededed;fill:none" d="M0 0v319.779"/>
                <path data-name="선 4" transform="rotate(90 144.83 175.449)" style="stroke:#ededed;fill:none" d="M0 0v319.779"/>
                <path data-name="선 65" transform="rotate(90 54.765 265.514)" style="stroke:#ededed;fill:none" d="M0 0v319.779"/>
                <path data-name="선 33" transform="rotate(90 101.217 219.062)" style="stroke:#ededed;fill:none" d="M0 0v319.779"/>
                <path data-name="선 17" transform="rotate(90 123.153 197.126)" style="stroke:#ededed;fill:none" d="M0 0v319.779"/>
                <path data-name="선 24" transform="rotate(90 79.282 240.997)" style="stroke:#ededed;fill:none" d="M0 0v319.779"/>
                <path data-name="선 9" transform="rotate(90 133.992 186.288)" style="stroke:#ededed;fill:none" d="M0 0v319.779"/>
                <path data-name="선 28" transform="rotate(90 90.378 229.9)" style="stroke:#ededed;fill:none" d="M0 0v319.779"/>
                <path data-name="선 13" transform="rotate(90 112.056 208.223)" style="stroke:#ededed;fill:none" d="M0 0v319.779"/>
                <path data-name="선 21" transform="rotate(90 68.443 251.836)" style="stroke:#ededed;fill:none" d="M0 0v319.779"/>
                <path data-name="선 5" transform="rotate(90 139.411 180.868)" style="stroke:#ededed;fill:none" d="M0 0v319.779"/>
                <path data-name="선 31" transform="rotate(90 95.798 224.481)" style="stroke:#ededed;fill:none" d="M0 0v319.779"/>
                <path data-name="선 15" transform="rotate(90 117.733 202.546)" style="stroke:#ededed;fill:none" d="M0 0v319.779"/>
                <path data-name="선 25" transform="rotate(90 73.862 246.417)" style="stroke:#ededed;fill:none" d="M0 0v319.779"/>
                <path data-name="선 7" transform="rotate(90 128.572 191.707)" style="stroke:#ededed;fill:none" d="M0 0v319.779"/>
                <path data-name="선 29" transform="rotate(90 84.701 235.578)" style="stroke:#ededed;fill:none" d="M0 0v319.779"/>
                <path data-name="선 11" transform="rotate(90 106.636 213.643)" style="stroke:#ededed;fill:none" d="M0 0v319.779"/>
                <path data-name="선 19" transform="rotate(90 63.023 257.256)" style="stroke:#ededed;fill:none" d="M0 0v319.779"/>
            </g>
            <path data-name="선 41" transform="translate(320.5 26)" style="stroke:#ededed;fill:none" d="M0 0v185"/>
            <path data-name="선 3" transform="rotate(90 147.779 172.72)" style="stroke:#ededed;fill:none" d="M0 0v319.999"/>
        </g>
        <g data-name="img_brand_our story_BI-typelogo">
            <g data-name="그룹 4235" transform="translate(72.234 93.218)" style="clip-path:url(#dgwa7ugf5a)">
                <path data-name="패스 6308" d="M105.214.51h-11.6V49.6h7.462V31.145h4.4a11.7 11.7 0 0 0 11.315-11.571v-7.39A11.694 11.694 0 0 0 105.214.51m-.319 23.173h-3.82V7.972h3.884a3.971 3.971 0 0 1 3.971 3.971v7.7a4.035 4.035 0 0 1-4.035 4.035" transform="translate(-35.664 -.194)" style="fill:#ff4600"/>
                <path data-name="패스 6309" d="M58 0a11.7 11.7 0 0 0-11.584 11.737v26.25a11.587 11.587 0 1 0 23.173 0v-26.25A11.7 11.7 0 0 0 58 0m4.124 18.453v19.629a4.124 4.124 0 1 1-8.247 0V11.643a4.124 4.124 0 1 1 8.247 0v6.81z" transform="translate(-17.683)" style="fill:#ff4600"/>
                <path data-name="사각형 1118" transform="translate(86.795 .316)" style="fill:#ff4600" d="M0 0h7.462v49.094H0z"/>
                <path data-name="패스 6310" d="M11.586.024A11.693 11.693 0 0 0 0 11.755v26.234A11.694 11.694 0 0 0 11.586 49.72a11.694 11.694 0 0 0 11.587-11.731V22.518H11.39v7.462h4.32v7.733a4.124 4.124 0 0 1-8.248 0v-25.93a4.124 4.124 0 0 1 8.248 0v2.487h7.463v-2.515A11.693 11.693 0 0 0 11.586.024" transform="translate(0 -.009)" style="fill:#ff4600"/>
                <path data-name="패스 6311" d="M168.8 42.142h12.454V49.6h-20.57v-6.517l12.49-35.111h-12.49V.51h20.57v6.521z" transform="translate(-61.216 -.194)" style="fill:#ff4600"/>
                <path data-name="패스 6312" d="M209.861 42.142h12.454V49.6h-20.57v-6.517l12.49-35.111h-12.49V.51h20.57v6.521z" transform="translate(-76.859 -.194)" style="fill:#ff4600"/>
                <path data-name="패스 6313" d="M255.836.526V.511l-3.913.007-3.913-.007v.015L237.782 49.6h7.534l2.725-12.717h7.759l2.729 12.717h7.534zm-1.646 28.828h-5.52l3.253-16.792 3.252 16.792z" transform="translate(-90.589 -.195)" style="fill:#ff4600"/>
            </g>
        </g>
        <text data-name="brand LOGO_type ver." transform="translate(.499 16)" style="font-size:16px;font-family:SolanoGothicProMVB-Bd,Solano Gothic Pro MVB"><tspan x="0" y="0">BRAND LOGO_TYPE VER.</tspan></text>
    </g>
</svg>
