<svg xmlns="http://www.w3.org/2000/svg" width="321" height="212" viewBox="0 0 321 212">
    <defs>
        <clipPath id="iolhg3whoa">
            <path data-name="사각형 832" transform="translate(.458 -.498)" style="fill:none" d="M0 0h179v99H0z"/>
        </clipPath>
    </defs>
    <g data-name="그룹 5537">
        <g data-name="그룹 5163">
            <g data-name="그룹 4171">
                <path data-name="선 3" transform="translate(.5 26)" style="stroke:#ededed;fill:none" d="M0 0v186"/>
                <path data-name="선 66" transform="translate(177.5 26)" style="stroke:#ededed;fill:none" d="M0 0v186"/>
                <path data-name="선 34" transform="translate(89.5 26)" style="stroke:#ededed;fill:none" d="M0 0v186"/>
                <path data-name="선 50" transform="translate(265.5 26)" style="stroke:#ededed;fill:none" d="M0 0v186"/>
                <path data-name="선 18" transform="translate(44.5 26)" style="stroke:#ededed;fill:none" d="M0 0v186"/>
                <path data-name="선 58" transform="translate(221.5 26)" style="stroke:#ededed;fill:none" d="M0 0v186"/>
                <path data-name="선 26" transform="translate(133.5 26)" style="stroke:#ededed;fill:none" d="M0 0v186"/>
                <path data-name="선 40" transform="translate(310.5 26)" style="stroke:#ededed;fill:none" d="M0 0v186"/>
                <path data-name="선 10" transform="translate(22.5 26)" style="stroke:#ededed;fill:none" d="M0 0v186"/>
                <path data-name="선 62" transform="translate(198.5 26)" style="stroke:#ededed;fill:none" d="M0 0v186"/>
                <path data-name="선 30" transform="translate(110.5 26)" style="stroke:#ededed;fill:none" d="M0 0v186"/>
                <path data-name="선 45" transform="translate(287.5 26)" style="stroke:#ededed;fill:none" d="M0 0v186"/>
                <path data-name="선 14" transform="translate(66.5 26)" style="stroke:#ededed;fill:none" d="M0 0v186"/>
                <path data-name="선 54" transform="translate(243.5 26)" style="stroke:#ededed;fill:none" d="M0 0v186"/>
                <path data-name="선 22" transform="translate(154.5 26)" style="stroke:#ededed;fill:none" d="M0 0v186"/>
                <path data-name="선 6" transform="translate(10.5 26)" style="stroke:#ededed;fill:none" d="M0 0v186"/>
                <path data-name="선 64" transform="translate(187.5 26)" style="stroke:#ededed;fill:none" d="M0 0v186"/>
                <path data-name="선 32" transform="translate(99.5 26)" style="stroke:#ededed;fill:none" d="M0 0v186"/>
                <path data-name="선 46" transform="translate(276.5 26)" style="stroke:#ededed;fill:none" d="M0 0v186"/>
                <path data-name="선 16" transform="translate(55.5 26)" style="stroke:#ededed;fill:none" d="M0 0v186"/>
                <path data-name="선 56" transform="translate(231.5 26)" style="stroke:#ededed;fill:none" d="M0 0v186"/>
                <path data-name="선 23" transform="translate(143.5 26)" style="stroke:#ededed;fill:none" d="M0 0v186"/>
                <path data-name="선 8" transform="translate(33.5 26)" style="stroke:#ededed;fill:none" d="M0 0v186"/>
                <path data-name="선 60" transform="translate(210.5 26)" style="stroke:#ededed;fill:none" d="M0 0v186"/>
                <path data-name="선 27" transform="translate(122.5 26)" style="stroke:#ededed;fill:none" d="M0 0v186"/>
                <path data-name="선 42" transform="translate(298.5 26)" style="stroke:#ededed;fill:none" d="M0 0v186"/>
                <path data-name="선 12" transform="translate(77.5 26)" style="stroke:#ededed;fill:none" d="M0 0v186"/>
                <path data-name="선 52" transform="translate(254.5 26)" style="stroke:#ededed;fill:none" d="M0 0v186"/>
                <path data-name="선 20" transform="translate(166.5 26)" style="stroke:#ededed;fill:none" d="M0 0v186"/>
                <path data-name="선 4" transform="translate(5.5 26)" style="stroke:#ededed;fill:none" d="M0 0v186"/>
                <path data-name="선 65" transform="translate(183.5 26)" style="stroke:#ededed;fill:none" d="M0 0v186"/>
                <path data-name="선 33" transform="translate(94.5 26)" style="stroke:#ededed;fill:none" d="M0 0v186"/>
                <path data-name="선 49" transform="translate(270.5 26)" style="stroke:#ededed;fill:none" d="M0 0v186"/>
                <path data-name="선 17" transform="translate(50.5 26)" style="stroke:#ededed;fill:none" d="M0 0v186"/>
                <path data-name="선 57" transform="translate(226.5 26)" style="stroke:#ededed;fill:none" d="M0 0v186"/>
                <path data-name="선 24" transform="translate(137.5 26)" style="stroke:#ededed;fill:none" d="M0 0v186"/>
                <path data-name="선 43" transform="translate(315.5 26)" style="stroke:#ededed;fill:none" d="M0 0v186"/>
                <path data-name="선 9" transform="translate(28.5 26)" style="stroke:#ededed;fill:none" d="M0 0v186"/>
                <path data-name="선 61" transform="translate(204.5 26)" style="stroke:#ededed;fill:none" d="M0 0v186"/>
                <path data-name="선 28" transform="translate(116.5 26)" style="stroke:#ededed;fill:none" d="M0 0v186"/>
                <path data-name="선 47" transform="translate(292.5 26)" style="stroke:#ededed;fill:none" d="M0 0v186"/>
                <path data-name="선 13" transform="translate(72.5 26)" style="stroke:#ededed;fill:none" d="M0 0v186"/>
                <path data-name="선 53" transform="translate(248.5 26)" style="stroke:#ededed;fill:none" d="M0 0v186"/>
                <path data-name="선 21" transform="translate(161.5 26)" style="stroke:#ededed;fill:none" d="M0 0v186"/>
                <path data-name="선 5" transform="translate(17.5 26)" style="stroke:#ededed;fill:none" d="M0 0v186"/>
                <path data-name="선 63" transform="translate(193.5 26)" style="stroke:#ededed;fill:none" d="M0 0v186"/>
                <path data-name="선 31" transform="translate(104.5 26)" style="stroke:#ededed;fill:none" d="M0 0v186"/>
                <path data-name="선 48" transform="translate(281.5 26)" style="stroke:#ededed;fill:none" d="M0 0v186"/>
                <path data-name="선 15" transform="translate(61.5 26)" style="stroke:#ededed;fill:none" d="M0 0v186"/>
                <path data-name="선 55" transform="translate(237.5 26)" style="stroke:#ededed;fill:none" d="M0 0v186"/>
                <path data-name="선 25" transform="translate(149.5 26)" style="stroke:#ededed;fill:none" d="M0 0v186"/>
                <path data-name="선 7" transform="translate(39.5 26)" style="stroke:#ededed;fill:none" d="M0 0v186"/>
                <path data-name="선 59" transform="translate(216.5 26)" style="stroke:#ededed;fill:none" d="M0 0v186"/>
                <path data-name="선 29" transform="translate(127.5 26)" style="stroke:#ededed;fill:none" d="M0 0v186"/>
                <path data-name="선 44" transform="translate(303.5 26)" style="stroke:#ededed;fill:none" d="M0 0v186"/>
                <path data-name="선 11" transform="translate(83.5 26)" style="stroke:#ededed;fill:none" d="M0 0v186"/>
                <path data-name="선 51" transform="translate(259.5 26)" style="stroke:#ededed;fill:none" d="M0 0v186"/>
                <path data-name="선 19" transform="translate(171.5 26)" style="stroke:#ededed;fill:none" d="M0 0v186"/>
                <path data-name="선 66" transform="rotate(90 57.605 262.675)" style="stroke:#ededed;fill:none" d="M0 0v319.78"/>
                <path data-name="선 34" transform="rotate(90 104.056 216.224)" style="stroke:#ededed;fill:none" d="M0 0v319.78"/>
                <path data-name="선 18" transform="rotate(90 125.734 194.546)" style="stroke:#ededed;fill:none" d="M0 0v319.78"/>
                <path data-name="선 26" transform="rotate(90 82.121 238.159)" style="stroke:#ededed;fill:none" d="M0 0v319.78"/>
                <path data-name="선 10" transform="rotate(90 136.831 183.449)" style="stroke:#ededed;fill:none" d="M0 0v319.78"/>
                <path data-name="선 30" transform="rotate(90 92.96 227.32)" style="stroke:#ededed;fill:none" d="M0 0v319.78"/>
                <path data-name="선 14" transform="rotate(90 114.895 205.385)" style="stroke:#ededed;fill:none" d="M0 0v319.78"/>
                <path data-name="선 22" transform="rotate(90 71.282 248.998)" style="stroke:#ededed;fill:none" d="M0 0v319.78"/>
                <path data-name="선 6" transform="rotate(90 142.25 178.03)" style="stroke:#ededed;fill:none" d="M0 0v319.78"/>
                <path data-name="선 64" transform="rotate(90 60.295 260.205)" style="stroke:#ededed;fill:none" d="M0 0v320"/>
                <path data-name="선 32" transform="rotate(90 98.379 221.901)" style="stroke:#ededed;fill:none" d="M0 0v319.78"/>
                <path data-name="선 16" transform="rotate(90 120.314 199.965)" style="stroke:#ededed;fill:none" d="M0 0v319.78"/>
                <path data-name="선 23" transform="rotate(90 76.701 243.578)" style="stroke:#ededed;fill:none" d="M0 0v319.78"/>
                <path data-name="선 8" transform="rotate(90 131.153 189.127)" style="stroke:#ededed;fill:none" d="M0 0v319.78"/>
                <path data-name="선 27" transform="rotate(90 87.54 232.74)" style="stroke:#ededed;fill:none" d="M0 0v319.78"/>
                <path data-name="선 12" transform="rotate(90 109.476 210.804)" style="stroke:#ededed;fill:none" d="M0 0v319.78"/>
                <path data-name="선 20" transform="rotate(90 65.605 254.675)" style="stroke:#ededed;fill:none" d="M0 0v319.78"/>
                <path data-name="선 4" transform="rotate(90 144.831 175.449)" style="stroke:#ededed;fill:none" d="M0 0v319.78"/>
                <path data-name="선 65" transform="rotate(90 54.766 265.514)" style="stroke:#ededed;fill:none" d="M0 0v319.78"/>
                <path data-name="선 33" transform="rotate(90 101.218 219.062)" style="stroke:#ededed;fill:none" d="M0 0v319.78"/>
                <path data-name="선 17" transform="rotate(90 123.153 197.126)" style="stroke:#ededed;fill:none" d="M0 0v319.78"/>
                <path data-name="선 24" transform="rotate(90 79.282 240.998)" style="stroke:#ededed;fill:none" d="M0 0v319.78"/>
                <path data-name="선 9" transform="rotate(90 133.992 186.288)" style="stroke:#ededed;fill:none" d="M0 0v319.78"/>
                <path data-name="선 28" transform="rotate(90 90.379 229.901)" style="stroke:#ededed;fill:none" d="M0 0v319.78"/>
                <path data-name="선 13" transform="rotate(90 112.056 208.224)" style="stroke:#ededed;fill:none" d="M0 0v319.78"/>
                <path data-name="선 21" transform="rotate(90 68.443 251.837)" style="stroke:#ededed;fill:none" d="M0 0v319.78"/>
                <path data-name="선 5" transform="rotate(90 139.411 180.869)" style="stroke:#ededed;fill:none" d="M0 0v319.78"/>
                <path data-name="선 31" transform="rotate(90 95.798 224.482)" style="stroke:#ededed;fill:none" d="M0 0v319.78"/>
                <path data-name="선 15" transform="rotate(90 117.734 202.546)" style="stroke:#ededed;fill:none" d="M0 0v319.78"/>
                <path data-name="선 25" transform="rotate(90 73.863 246.417)" style="stroke:#ededed;fill:none" d="M0 0v319.78"/>
                <path data-name="선 7" transform="rotate(90 128.572 191.708)" style="stroke:#ededed;fill:none" d="M0 0v319.78"/>
                <path data-name="선 29" transform="rotate(90 84.701 235.578)" style="stroke:#ededed;fill:none" d="M0 0v319.78"/>
                <path data-name="선 11" transform="rotate(90 106.637 213.643)" style="stroke:#ededed;fill:none" d="M0 0v319.78"/>
                <path data-name="선 19" transform="rotate(90 63.024 257.256)" style="stroke:#ededed;fill:none" d="M0 0v319.78"/>
            </g>
            <path data-name="선 41" transform="translate(320.5 26)" style="stroke:#ededed;fill:none" d="M0 0v186"/>
            <path data-name="선 3" transform="rotate(90 147.78 172.72)" style="stroke:#ededed;fill:none" d="M0 0v320"/>
        </g>
        <g data-name="img_brand_our story_BI-logo">
            <g data-name="그룹 3426">
                <g data-name="그룹 3324" transform="translate(71.042 68.498)" style="clip-path:url(#iolhg3whoa)">
                    <path data-name="패스 3079" d="M129.2 0H49.928A49.8 49.8 0 0 0 0 49.561a49.05 49.05 0 0 0 14.624 35.044 49.785 49.785 0 0 0 35.3 14.516h79.318c27.5-.033 49.867-22.256 49.867-49.561A49.8 49.8 0 0 0 129.2 0" transform="translate(.327 -.14)" style="fill:#fff"/>
                    <path data-name="패스 3080" d="M226.532 76.967h4.893l-2.445-12.545z" transform="translate(-83.706 -24.336)" style="fill:#ff4600"/>
                    <path data-name="패스 3081" d="M83.806 58.557a3.122 3.122 0 0 0-3.1 3.121v19.753a3.1 3.1 0 1 0 6.207 0V61.678a3.12 3.12 0 0 0-3.1-3.121" transform="translate(-29.609 -22.133)" style="fill:#ff4600"/>
                    <path data-name="패스 3082" d="M118.58 58.931h-2.923v11.737h2.875a3.026 3.026 0 0 0 3.037-3.015V61.9a2.978 2.978 0 0 0-2.989-2.967" transform="translate(-42.575 -22.273)" style="fill:#ff4600"/>
                    <path data-name="패스 3083" d="M139.709 11.115a43.926 43.926 0 0 0-6.584-.495H53.866a43.951 43.951 0 0 0-6.586.495 42.891 42.891 0 0 0 0 84.872 43.951 43.951 0 0 0 6.586.495h79.268a43.928 43.928 0 0 0 6.577-.5 42.89 42.89 0 0 0 0-84.871M44.9 45.63h-5.613v-1.858a3.1 3.1 0 0 0-6.208 0v19.372a3.1 3.1 0 0 0 6.208 0v-5.777h-3.252v-5.575H44.9V63.35a8.72 8.72 0 1 1-17.44 0v-19.6a8.72 8.72 0 1 1 17.44 0zm21.625 2.185v15.54a8.72 8.72 0 1 1-17.44 0V43.744a8.72 8.72 0 1 1 17.44 0zm21.988 1.638A8.769 8.769 0 0 1 80 58.1h-3.308v13.79h-5.616V35.212h8.73a8.769 8.769 0 0 1 8.709 8.722zM98.4 71.889h-5.614V35.212H98.4zm19.4-31.806-9.373 26.231h9.373v5.575h-15.477v-4.872l9.4-26.231h-9.4v-5.574h15.482zm19.13 0-9.373 26.231h9.373v5.575h-15.476v-4.872l9.4-26.231h-9.4v-5.574h15.481zm16.923 31.806-2.051-9.5h-5.843l-2.051 9.5h-5.671l7.7-36.666v-.012l2.945.006 2.945-.006v.012l7.7 36.666z" transform="translate(-3.611 -4.129)" style="fill:#ff4600"/>
                    <path data-name="패스 3084" d="M129.2 0H49.927A49.8 49.8 0 0 0 0 49.561a49.051 49.051 0 0 0 14.623 35.044 49.78 49.78 0 0 0 35.3 14.516h79.318c27.5-.033 49.868-22.256 49.868-49.561A49.8 49.8 0 0 0 129.2 0m0 96.679H49.927a47.12 47.12 0 1 1 0-94.238H129.2a47.12 47.12 0 1 1 0 94.237" transform="translate(.327 -.14)" style="fill:#ff4600"/>
                </g>
            </g>
        </g>
        <text data-name="brand LOGO_symbol ver." transform="translate(.5 16)" style="font-size:16px;font-family:SolanoGothicProMVB-Bd,Solano Gothic Pro MVB"><tspan x="0" y="0">BRAND LOGO_SYMBOL VER.</tspan></text>
    </g>
</svg>
