<svg data-name="그룹 4044" xmlns="http://www.w3.org/2000/svg" width="465.164" height="387.322" viewBox="0 0 465.164 387.322">
    <defs>
        <clipPath id="pdeqb2fe0a">
            <path data-name="사각형 1020" style="fill:none" d="M0 0h465.164v387.322H0z"/>
        </clipPath>
    </defs>
    <g data-name="그룹 4043" style="clip-path:url(#pdeqb2fe0a)">
        <path data-name="패스 3704" d="M500.38 48.073C474.5 23.346 438.049 6.886 397.757 1.722c-38.087-4.88-76.485.694-108.76 15.7-18.361-7.95-38.732-11.511-60.553-10.579C201.365 8 173.8 16.176 148.457 30.534a35.489 35.489 0 0 0-12.784-1.729A43.661 43.661 0 0 0 108.4 40.576a45.907 45.907 0 0 0-14.6 26.203 15.4 15.4 0 0 0-.11.795l-.456 4.189a14.932 14.932 0 0 0 .238 4.74c-19.231 23.2-31.922 49.588-36.812 76.655-.051.284-.093.569-.128.844L53.883 175.9c-.049.4-.081.812-.1 1.2L51.5 233.849a14.733 14.733 0 0 0 .613 4.868L4.375 445.337C-6.246 491.3 2.619 535.224 29.337 569.015a139.034 139.034 0 0 0 51.68 40.23c21.149 9.714 44.728 14.711 70.08 14.854 48.37.275 97.938-17.24 139.576-49.316a236.477 236.477 0 0 0 51.31-54.047 197.557 197.557 0 0 0 29.764-66.8l43.377-187.757L476.46 231.4c.123-.071.248-.145.37-.218 35.4-21.441 57.044-52.924 60.955-88.654 3.754-34.283-9.53-67.829-37.405-94.456" transform="translate(-91.261 -117.972)" style="fill:#fff"/>
        <path data-name="패스 3705" d="M43.918 156.022c-.419 2.158 2.928 4.62 7.475 5.5s8.568-.152 8.988-2.31-2.928-4.62-7.475-5.5-8.568.15-8.988 2.308" transform="translate(-27.529 104.812)" style="fill:#171c8f"/>
        <path data-name="패스 3706" d="M38.493 148.608c-.419 2.158 2.928 4.62 7.475 5.5s8.568-.152 8.988-2.31-2.928-4.62-7.475-5.5-8.568.15-8.988 2.308" transform="translate(-35.408 94.045)" style="fill:#171c8f"/>
        <path data-name="패스 3707" d="M129.523 180.292c-.191 1.6 2.386 3.222 5.756 3.627s6.256-.567 6.447-2.165-2.384-3.222-5.753-3.627-6.258.566-6.45 2.165" transform="translate(96.834 140.594)" style="fill:#171c8f"/>
        <path data-name="패스 3708" d="M125.807 175.623c-.191 1.6 2.386 3.225 5.756 3.629s6.256-.569 6.447-2.168-2.384-3.22-5.753-3.625-6.258.566-6.45 2.163" transform="translate(91.437 133.816)" style="fill:#171c8f"/>
        <path data-name="패스 3709" d="M119.188 178.78c-.191 1.6 2.386 3.222 5.756 3.627s6.256-.566 6.447-2.165-2.384-3.222-5.753-3.627-6.258.566-6.45 2.165" transform="translate(81.824 138.398)" style="fill:#171c8f"/>
        <path data-name="패스 3710" d="M139.832 515.355c-20.96-.12-40.419-4.235-57.831-12.232a113.57 113.57 0 0 1-42.224-32.849c-21.811-27.589-29.026-63.552-20.313-101.269L62 184.882C80.191 106.156 162.82 42.493 246.192 42.967c20.962.118 40.419 4.235 57.833 12.232a113.563 113.563 0 0 1 42.222 32.849c21.813 27.586 29.026 63.552 20.313 101.269a6.159 6.159 0 1 1-12-2.774c7.852-34 1.469-66.262-17.973-90.854a101.373 101.373 0 0 0-37.7-29.3c-15.81-7.261-33.562-11-52.759-11.109a165.148 165.148 0 0 0-57.183 10.2 191.412 191.412 0 0 0-51.7 28.47 185.584 185.584 0 0 0-40.235 42.285 151.786 151.786 0 0 0-23 51.42L31.469 371.779c-7.855 34-1.471 66.262 17.973 90.854a101.37 101.37 0 0 0 37.7 29.3c15.813 7.261 33.562 11 52.762 11.109a165.259 165.259 0 0 0 57.181-10.2 191.425 191.425 0 0 0 51.7-28.467 185.676 185.676 0 0 0 40.233-42.285 151.737 151.737 0 0 0 23-51.42l36.1-156.23a6.159 6.159 0 1 1 12 2.774l-36.093 156.23C305.836 452.171 223.21 515.833 139.836 515.36" transform="translate(-68.224 -55.574)" style="fill:#171c8f"/>
        <path data-name="패스 3711" d="M173.678 137.118c-3.951-26.407-16.227-44.4-33.685-49.373-7.617-2.168-15.685-1.753-23.984 1.236-25.168 9.064-48.779 40.729-60.151 80.67-10.221 35.9-8.532 71.934 4.409 94.032 6.016 10.27 14.3 17.154 23.971 19.906a35.84 35.84 0 0 0 9.645 1.368c12.831.071 26.409-6.531 39.117-19.214 15.435-15.408 28-38.158 35.372-64.06 6.325-22.218 8.208-45.147 5.3-64.565m-17.071 61.215c-6.813 23.927-18.265 44.792-32.248 58.75-12.671 12.649-25.73 17.882-36.773 14.738-6.668-1.9-12.308-6.717-16.762-14.322a51.827 51.827 0 0 1-2.185-4.189c7.752-4.1 15.3-12.122 21.907-23.309 7.136-12.083 12.674-27.057 16.016-43.3 5.883-28.619 3.983-56.769-4.91-74.2 5.969-5.621 12.23-9.753 18.5-12.011a26.554 26.554 0 0 1 16.489-.978c12.639 3.6 21.728 17.963 24.935 39.416 2.653 17.73.888 38.828-4.971 59.405" transform="translate(-19.768 7.48)" style="fill:#171c8f"/>
        <path data-name="패스 3712" d="M201.453 146.275c-1.893-20.165-9.351-33.894-21-38.661-7.747-3.168-16.612-2.062-25.637 3.2-8.546 4.983-17.186 13.686-24.987 25.168a168.84 168.84 0 0 0-19.7 40.726c-9.476 28.28-11.847 57.173-6.347 77.29 3.458 12.639 9.871 21.2 18.549 24.746a23.766 23.766 0 0 0 8.929 1.758 30.69 30.69 0 0 0 12.946-2.994c18.741-8.588 37.3-34.588 48.451-67.856 7.426-22.171 10.55-44.679 8.8-63.378m-19.8 59.692c-5.071 15.136-11.9 28.967-19.763 39.995-7.283 10.226-15.283 17.684-22.52 21-4.76 2.18-9.015 2.531-12.649 1.045-6.589-2.7-10.028-10.771-11.749-17.068a64.652 64.652 0 0 1-1.491-7.016c11.484-9.51 22.581-29.56 29.413-53.424 6.158-21.514 8.066-43.2 5.339-59.285a54.949 54.949 0 0 1 12.428-10.376c3.9-2.278 7.5-3.409 10.751-3.392a12.365 12.365 0 0 1 4.647.907c7.347 3.007 12.392 13.579 13.841 29.006 1.606 17.125-1.322 37.937-8.247 58.608" transform="translate(55.229 35.751)" style="fill:#171c8f"/>
        <path data-name="패스 3713" d="M160.736 152.317a8.236 8.236 0 0 1-5.925-2.553c-4.576-4.38-53.326-38.825-83.041-59.552a8.255 8.255 0 1 1 9.447-13.542c18.8 13.11 80.522 56.313 85.6 61.759a8.257 8.257 0 0 1-6.082 13.888m-5.993-2.626.037.042-.037-.042" transform="translate(7.842 -8.78)" style="fill:#171c8f"/>
        <path data-name="패스 3714" d="M122.02 129.333a7.83 7.83 0 0 1-1.589-15.486l60.658-13a7.829 7.829 0 1 1 3.281 15.31l-60.658 13a7.824 7.824 0 0 1-1.692.177" transform="translate(74.652 28.228)" style="fill:#171c8f"/>
        <path data-name="패스 3715" d="M101.688 220.751a22.362 22.362 0 0 1-15.827-6.651 6.117 6.117 0 1 1 8.7-8.6 10.2 10.2 0 0 0 14.51-14.346 1.95 1.95 0 0 1-.078-.081L95.83 177.262a6.115 6.115 0 1 1 8.853-8.438l13.13 13.772a22.425 22.425 0 0 1-16.124 38.156" transform="translate(30.872 124.46)" style="fill:#171c8f"/>
        <path data-name="패스 3716" d="M150.591 246.649a127.134 127.134 0 0 1-71.417-22.375A128.864 128.864 0 0 1 32.992 167.6a6.117 6.117 0 0 1 11.286-4.721 116.7 116.7 0 0 0 41.812 51.306 114.989 114.989 0 0 0 64.57 20.232 6.116 6.116 0 0 1-.069 12.232" transform="translate(-44.035 113.124)" style="fill:#171c8f"/>
        <path data-name="패스 3717" d="M192.8 6.408C164.857 7.6 137.383 16.6 113.086 31.091a8.366 8.366 0 0 0-.547-.294 26.335 26.335 0 0 0-12.509-2.428 34.994 34.994 0 0 0-21.916 9.54 37.252 37.252 0 0 0-11.762 21.168q-.026.166-.044.331l-.459 4.192a6.144 6.144 0 0 0 1.891 5.13c-19.552 22.2-33.467 48.715-38.548 76.858a6.145 6.145 0 0 0-.054.353l-2.653 21.9c-.02.164-.034.329-.039.493L24.8 209.193a184.6 184.6 0 0 1 13.708-34.406l.231-5.709 2.6-21.48c5.951-32.684 25.061-64.138 53.82-88.58 28.854-24.518 63.719-38.838 98.166-40.309a121.818 121.818 0 0 1 35.684 3.534l9.066-5.736c.034-.02.066-.042.1-.061a150.479 150.479 0 0 1 4.789-2.771A130.044 130.044 0 0 0 192.8 6.408" transform="translate(-55.247 -108.864)" style="fill:#171c8f"/>
        <path data-name="패스 3718" d="M380.448 49.209c-53.809-51.4-151.07-60.84-216.81-21.036l-.1.064-83.379 52.745a6.139 6.139 0 0 0-1.707 1.618c25.99-10.957 53.858-17.053 81.8-16.894 24.111.137 46.489 4.868 66.507 14.062a130.451 130.451 0 0 1 48.495 37.727 125.83 125.83 0 0 1 24.572 52.875c4.22 20.244 3.8 41.6-1.256 63.469l-4.954 21.436a6.007 6.007 0 0 0 .9-.414l63.709-36.13c.051-.027.1-.056.152-.088 16.58-10.04 29.965-22.429 39.782-36.829a99.1 99.1 0 0 0 17.068-45.361c3.453-31.537-8.9-62.517-34.774-87.236" transform="translate(22.677 -112.832)" style="fill:#171c8f"/>
        <path data-name="패스 3719" d="M408.613 133.551a125.806 125.806 0 0 0-24.573-52.872 130.4 130.4 0 0 0-48.495-37.727c-20.018-9.2-42.4-13.927-66.507-14.064-27.942-.159-55.81 5.94-81.8 16.894C123.91 72.481 71.744 128.041 56.893 192.324L7.68 405.34c-5.052 21.872-5.48 43.225-1.256 63.469A125.8 125.8 0 0 0 31 521.683a130.462 130.462 0 0 0 48.492 37.727c20.021 9.194 42.4 13.924 66.509 14.062 96.031.544 191.2-72.773 212.143-163.435L402.4 218.456l4.954-21.436c5.052-21.872 5.474-43.225 1.256-63.469m-13.26 60.695-49.21 213.017c-4.784 20.7-13.787 40.829-26.757 59.815a215.691 215.691 0 0 1-46.756 49.142 222.455 222.455 0 0 1-60.07 33.077 192.074 192.074 0 0 1-66.49 11.857c-22.348-.128-43.019-4.48-61.436-12.938a118.279 118.279 0 0 1-43.973-34.173C17.98 485.357 10.53 447.736 19.684 408.114L68.9 195.1c4.782-20.7 13.785-40.829 26.757-59.815a215.731 215.731 0 0 1 46.754-49.142 222.435 222.435 0 0 1 60.069-33.079 192.048 192.048 0 0 1 66.487-11.855c22.35.125 43.019 4.478 61.438 12.938a118.22 118.22 0 0 1 43.97 34.171c22.681 28.687 30.132 66.306 20.977 105.928" transform="translate(-86.11 -76.02)" style="fill:#171c8f"/>
        <path data-name="패스 3720" d="M152.1 99.315A7.937 7.937 0 0 0 136.875 99a54.936 54.936 0 0 1-6.111 13.252 52.083 52.083 0 0 1-13.843 12.507 7.934 7.934 0 0 0 7.614 13.883l.108.26a38.785 38.785 0 0 0 11.028-7.759 56.491 56.491 0 0 0 7.938-9.579 54.3 54.3 0 0 0 4.049-6.275 38.7 38.7 0 0 0 4.642-12.659h-.022a7.908 7.908 0 0 0-.184-3.313" transform="translate(73.227 17.769)" style="fill:#171c8f"/>
    </g>
</svg>
