<svg xmlns="http://www.w3.org/2000/svg" width="93" height="93" viewBox="0 0 93 93">
    <defs>
        <clipPath id="tp9zgb3kga">
            <path data-name="사각형 1014" transform="translate(0 -.001)" style="fill:#fff" d="M0 0h93v93H0z"/>
        </clipPath>
    </defs>
    <g data-name="그룹 4034">
        <g data-name="그룹 4033" style="clip-path:url(#tp9zgb3kga)">
            <path data-name="패스 3701" d="M50.5 93.233A46.7 46.7 0 1 1 93.233 50.5 46.743 46.743 0 0 1 50.5 93.233m-.395-88.261A41.86 41.86 0 1 0 88.413 43.28 41.9 41.9 0 0 0 50.105 4.972" transform="translate(-.193 -.193)" style="fill:#fff"/>
            <path data-name="패스 3702" d="M196.155 205.027a4.886 4.886 0 0 1-2.551-.726 5.166 5.166 0 0 1-2.335-4.446v-32.27a5.085 5.085 0 0 1 1.9-4.076 4.856 4.856 0 0 1 5.431-.362l28.366 16.377a4.848 4.848 0 0 1 2.428 4.63 5.1 5.1 0 0 1-2.612 3.939L198.6 204.365a4.876 4.876 0 0 1-2.443.662m.021-36.014-.068 29.442a.969.969 0 0 0 1.451.842l25.532-14.663a.969.969 0 0 0 0-1.678l-25.464-14.779a.969.969 0 0 0-1.455.835" transform="translate(-161.536 -137.256)" style="fill:#fff"/>
        </g>
    </g>
</svg>
