<svg xmlns="http://www.w3.org/2000/svg" width="621" height="394.5" viewBox="0 0 621 394.5">
    <defs>
        <clipPath id="5jlzb67i2a">
            <path data-name="사각형 832" transform="translate(.499 -.224)" style="fill:none" d="M0 0h346v192H0z"/>
        </clipPath>
    </defs>
    <g data-name="그룹 5202">
        <text data-name="brand LOGO_symbol ver." transform="translate(.5 20)" style="font-size:20px;font-family:SolanoGothicProMVB-Bd,Solano Gothic Pro MVB"><tspan x="0" y="0">BRAND LOGO_SYMBOL VER.</tspan></text>
        <g data-name="그룹 5165">
            <g data-name="그룹 5163">
                <g data-name="그룹 4171">
                    <path data-name="선 3" transform="translate(.5 34)" style="stroke:#ededed;fill:none" d="M0 0v360"/>
                    <path data-name="선 66" transform="translate(342.5 34)" style="stroke:#ededed;fill:none" d="M0 0v360"/>
                    <path data-name="선 34" transform="translate(171.5 34)" style="stroke:#ededed;fill:none" d="M0 0v360"/>
                    <path data-name="선 50" transform="translate(513.5 34)" style="stroke:#ededed;fill:none" d="M0 0v360"/>
                    <path data-name="선 18" transform="translate(86.5 34)" style="stroke:#ededed;fill:none" d="M0 0v360"/>
                    <path data-name="선 58" transform="translate(428.5 34)" style="stroke:#ededed;fill:none" d="M0 0v360"/>
                    <path data-name="선 26" transform="translate(257.5 34)" style="stroke:#ededed;fill:none" d="M0 0v360"/>
                    <path data-name="선 40" transform="translate(599.5 34)" style="stroke:#ededed;fill:none" d="M0 0v360"/>
                    <path data-name="선 10" transform="translate(43.5 34)" style="stroke:#ededed;fill:none" d="M0 0v360"/>
                    <path data-name="선 62" transform="translate(385.5 34)" style="stroke:#ededed;fill:none" d="M0 0v360"/>
                    <path data-name="선 30" transform="translate(214.5 34)" style="stroke:#ededed;fill:none" d="M0 0v360"/>
                    <path data-name="선 45" transform="translate(556.5 34)" style="stroke:#ededed;fill:none" d="M0 0v360"/>
                    <path data-name="선 14" transform="translate(128.5 34)" style="stroke:#ededed;fill:none" d="M0 0v360"/>
                    <path data-name="선 54" transform="translate(470.5 34)" style="stroke:#ededed;fill:none" d="M0 0v360"/>
                    <path data-name="선 22" transform="translate(299.5 34)" style="stroke:#ededed;fill:none" d="M0 0v360"/>
                    <path data-name="선 6" transform="translate(21.5 34)" style="stroke:#ededed;fill:none" d="M0 0v360"/>
                    <path data-name="선 64" transform="translate(363.5 34)" style="stroke:#ededed;fill:none" d="M0 0v360"/>
                    <path data-name="선 32" transform="translate(192.5 34)" style="stroke:#ededed;fill:none" d="M0 0v360"/>
                    <path data-name="선 46" transform="translate(534.5 34)" style="stroke:#ededed;fill:none" d="M0 0v360"/>
                    <path data-name="선 16" transform="translate(107.5 34)" style="stroke:#ededed;fill:none" d="M0 0v360"/>
                    <path data-name="선 56" transform="translate(449.5 34)" style="stroke:#ededed;fill:none" d="M0 0v360"/>
                    <path data-name="선 23" transform="translate(278.5 34)" style="stroke:#ededed;fill:none" d="M0 0v360"/>
                    <path data-name="선 8" transform="translate(64.5 34)" style="stroke:#ededed;fill:none" d="M0 0v360"/>
                    <path data-name="선 60" transform="translate(406.5 34)" style="stroke:#ededed;fill:none" d="M0 0v360"/>
                    <path data-name="선 27" transform="translate(235.5 34)" style="stroke:#ededed;fill:none" d="M0 0v360"/>
                    <path data-name="선 42" transform="translate(577.5 34)" style="stroke:#ededed;fill:none" d="M0 0v360"/>
                    <path data-name="선 12" transform="translate(150.5 34)" style="stroke:#ededed;fill:none" d="M0 0v360"/>
                    <path data-name="선 52" transform="translate(492.5 34)" style="stroke:#ededed;fill:none" d="M0 0v360"/>
                    <path data-name="선 20" transform="translate(321.5 34)" style="stroke:#ededed;fill:none" d="M0 0v360"/>
                    <path data-name="선 4" transform="translate(11.5 34)" style="stroke:#ededed;fill:none" d="M0 0v360"/>
                    <path data-name="선 65" transform="translate(353.5 34)" style="stroke:#ededed;fill:none" d="M0 0v360"/>
                    <path data-name="선 33" transform="translate(182.5 34)" style="stroke:#ededed;fill:none" d="M0 0v360"/>
                    <path data-name="선 49" transform="translate(524.5 34)" style="stroke:#ededed;fill:none" d="M0 0v360"/>
                    <path data-name="선 17" transform="translate(96.5 34)" style="stroke:#ededed;fill:none" d="M0 0v360"/>
                    <path data-name="선 57" transform="translate(438.5 34)" style="stroke:#ededed;fill:none" d="M0 0v360"/>
                    <path data-name="선 24" transform="translate(267.5 34)" style="stroke:#ededed;fill:none" d="M0 0v360"/>
                    <path data-name="선 43" transform="translate(609.5 34)" style="stroke:#ededed;fill:none" d="M0 0v360"/>
                    <path data-name="선 9" transform="translate(53.5 34)" style="stroke:#ededed;fill:none" d="M0 0v360"/>
                    <path data-name="선 61" transform="translate(396.5 34)" style="stroke:#ededed;fill:none" d="M0 0v360"/>
                    <path data-name="선 28" transform="translate(224.5 34)" style="stroke:#ededed;fill:none" d="M0 0v360"/>
                    <path data-name="선 47" transform="translate(567.5 34)" style="stroke:#ededed;fill:none" d="M0 0v360"/>
                    <path data-name="선 13" transform="translate(139.5 34)" style="stroke:#ededed;fill:none" d="M0 0v360"/>
                    <path data-name="선 53" transform="translate(481.5 34)" style="stroke:#ededed;fill:none" d="M0 0v360"/>
                    <path data-name="선 21" transform="translate(310.5 34)" style="stroke:#ededed;fill:none" d="M0 0v360"/>
                    <path data-name="선 5" transform="translate(32.5 34)" style="stroke:#ededed;fill:none" d="M0 0v360"/>
                    <path data-name="선 63" transform="translate(374.5 34)" style="stroke:#ededed;fill:none" d="M0 0v360"/>
                    <path data-name="선 31" transform="translate(203.5 34)" style="stroke:#ededed;fill:none" d="M0 0v360"/>
                    <path data-name="선 48" transform="translate(545.5 34)" style="stroke:#ededed;fill:none" d="M0 0v360"/>
                    <path data-name="선 15" transform="translate(118.5 34)" style="stroke:#ededed;fill:none" d="M0 0v360"/>
                    <path data-name="선 55" transform="translate(460.5 34)" style="stroke:#ededed;fill:none" d="M0 0v360"/>
                    <path data-name="선 25" transform="translate(289.5 34)" style="stroke:#ededed;fill:none" d="M0 0v360"/>
                    <path data-name="선 7" transform="translate(75.5 34)" style="stroke:#ededed;fill:none" d="M0 0v360"/>
                    <path data-name="선 59" transform="translate(417.5 34)" style="stroke:#ededed;fill:none" d="M0 0v360"/>
                    <path data-name="선 29" transform="translate(246.5 34)" style="stroke:#ededed;fill:none" d="M0 0v360"/>
                    <path data-name="선 44" transform="translate(588.5 34)" style="stroke:#ededed;fill:none" d="M0 0v360"/>
                    <path data-name="선 11" transform="translate(160.5 34)" style="stroke:#ededed;fill:none" d="M0 0v360"/>
                    <path data-name="선 51" transform="translate(502.5 34)" style="stroke:#ededed;fill:none" d="M0 0v360"/>
                    <path data-name="선 19" transform="translate(331.5 34)" style="stroke:#ededed;fill:none" d="M0 0v360"/>
                    <path data-name="선 66" transform="rotate(90 118.537 501.537)" style="stroke:#ededed;fill:none" d="M0 0v619.574"/>
                    <path data-name="선 34" transform="rotate(90 208.537 411.537)" style="stroke:#ededed;fill:none" d="M0 0v619.574"/>
                    <path data-name="선 18" transform="rotate(90 250.537 369.537)" style="stroke:#ededed;fill:none" d="M0 0v619.574"/>
                    <path data-name="선 26" transform="rotate(90 166.037 454.037)" style="stroke:#ededed;fill:none" d="M0 0v619.574"/>
                    <path data-name="선 10" transform="rotate(90 272.037 348.037)" style="stroke:#ededed;fill:none" d="M0 0v619.574"/>
                    <path data-name="선 30" transform="rotate(90 187.037 433.037)" style="stroke:#ededed;fill:none" d="M0 0v619.574"/>
                    <path data-name="선 14" transform="rotate(90 229.537 390.537)" style="stroke:#ededed;fill:none" d="M0 0v619.574"/>
                    <path data-name="선 22" transform="rotate(90 145.037 475.037)" style="stroke:#ededed;fill:none" d="M0 0v619.574"/>
                    <path data-name="선 6" transform="rotate(90 282.537 337.537)" style="stroke:#ededed;fill:none" d="M0 0v619.574"/>
                    <path data-name="선 64" transform="rotate(90 123.75 496.75)" style="stroke:#ededed;fill:none" d="M0 0v620"/>
                    <path data-name="선 32" transform="rotate(90 197.537 422.537)" style="stroke:#ededed;fill:none" d="M0 0v619.574"/>
                    <path data-name="선 16" transform="rotate(90 240.037 380.037)" style="stroke:#ededed;fill:none" d="M0 0v619.574"/>
                    <path data-name="선 23" transform="rotate(90 155.537 464.537)" style="stroke:#ededed;fill:none" d="M0 0v619.574"/>
                    <path data-name="선 8" transform="rotate(90 261.037 359.037)" style="stroke:#ededed;fill:none" d="M0 0v619.574"/>
                    <path data-name="선 27" transform="rotate(90 176.537 443.537)" style="stroke:#ededed;fill:none" d="M0 0v619.574"/>
                    <path data-name="선 12" transform="rotate(90 219.037 401.037)" style="stroke:#ededed;fill:none" d="M0 0v619.574"/>
                    <path data-name="선 20" transform="rotate(90 134.037 486.037)" style="stroke:#ededed;fill:none" d="M0 0v619.574"/>
                    <path data-name="선 4" transform="rotate(90 287.537 332.537)" style="stroke:#ededed;fill:none" d="M0 0v619.574"/>
                    <path data-name="선 65" transform="rotate(90 113.037 507.037)" style="stroke:#ededed;fill:none" d="M0 0v619.574"/>
                    <path data-name="선 33" transform="rotate(90 203.037 417.037)" style="stroke:#ededed;fill:none" d="M0 0v619.574"/>
                    <path data-name="선 17" transform="rotate(90 245.537 374.537)" style="stroke:#ededed;fill:none" d="M0 0v619.574"/>
                    <path data-name="선 24" transform="rotate(90 160.537 459.537)" style="stroke:#ededed;fill:none" d="M0 0v619.574"/>
                    <path data-name="선 9" transform="rotate(90 266.537 353.537)" style="stroke:#ededed;fill:none" d="M0 0v619.574"/>
                    <path data-name="선 28" transform="rotate(90 182.037 438.037)" style="stroke:#ededed;fill:none" d="M0 0v619.574"/>
                    <path data-name="선 13" transform="rotate(90 224.037 396.037)" style="stroke:#ededed;fill:none" d="M0 0v619.574"/>
                    <path data-name="선 21" transform="rotate(90 139.537 480.537)" style="stroke:#ededed;fill:none" d="M0 0v619.574"/>
                    <path data-name="선 5" transform="rotate(90 277.037 343.037)" style="stroke:#ededed;fill:none" d="M0 0v619.574"/>
                    <path data-name="선 31" transform="rotate(90 192.537 427.537)" style="stroke:#ededed;fill:none" d="M0 0v619.574"/>
                    <path data-name="선 15" transform="rotate(90 235.037 385.037)" style="stroke:#ededed;fill:none" d="M0 0v619.574"/>
                    <path data-name="선 25" transform="rotate(90 150.037 470.037)" style="stroke:#ededed;fill:none" d="M0 0v619.574"/>
                    <path data-name="선 7" transform="rotate(90 256.037 364.037)" style="stroke:#ededed;fill:none" d="M0 0v619.574"/>
                    <path data-name="선 29" transform="rotate(90 171.037 449.037)" style="stroke:#ededed;fill:none" d="M0 0v619.574"/>
                    <path data-name="선 11" transform="rotate(90 213.537 406.537)" style="stroke:#ededed;fill:none" d="M0 0v619.574"/>
                    <path data-name="선 19" transform="rotate(90 129.037 491.037)" style="stroke:#ededed;fill:none" d="M0 0v619.574"/>
                </g>
                <path data-name="선 41" transform="translate(620.5 34)" style="stroke:#ededed;fill:none" d="M0 0v360"/>
                <path data-name="선 3" transform="rotate(90 293.25 327.25)" style="stroke:#ededed;fill:none" d="M0 0v620"/>
            </g>
            <g data-name="img_brand_our story_BI-logo">
                <g data-name="그룹 3426">
                    <g data-name="그룹 3324" transform="translate(138 118.224)" style="clip-path:url(#5jlzb67i2a)">
                        <path data-name="패스 3079" d="M250.325 0H96.735C43.394 0 0 43.076 0 96.024a95.034 95.034 0 0 0 28.332 67.9 96.459 96.459 0 0 0 68.4 28.125h153.682c53.28-.064 96.617-43.122 96.617-96.024 0-52.934-43.382-96.01-96.706-96.025" transform="translate(-.19 -.103)" style="fill:#fff"/>
                        <path data-name="패스 3080" d="M226.532 88.728h9.481l-4.736-24.305z" transform="translate(49.37 13.414)" style="fill:#ff4600"/>
                        <path data-name="패스 3081" d="M86.715 58.557A6.048 6.048 0 0 0 80.7 64.6v38.272a6.013 6.013 0 1 0 12.027 0V64.6a6.046 6.046 0 0 0-6.013-6.047" transform="translate(17.466 12.184)" style="fill:#ff4600"/>
                        <path data-name="패스 3082" d="M121.321 58.931h-5.664v22.74h5.571a5.862 5.862 0 0 0 5.884-5.841V64.679a5.769 5.769 0 0 0-5.791-5.748" transform="translate(25.114 12.262)" style="fill:#ff4600"/>
                        <path data-name="패스 3083" d="M260.733 11.578a85.107 85.107 0 0 0-12.757-.958H94.411a85.155 85.155 0 0 0-12.761.958c-40.22 6.1-71.032 40.589-71.032 82.222s30.812 76.12 71.033 82.22a85.153 85.153 0 0 0 12.761.958h153.581a85.108 85.108 0 0 0 12.743-.959c40.221-6.1 71.033-40.587 71.033-82.218s-30.813-76.12-71.036-82.22M77.045 78.452H66.164v-3.6a6.015 6.015 0 0 0-12.028 0v37.534a6.015 6.015 0 0 0 12.028 0v-11.194h-6.3v-10.8h17.181v22.394a16.9 16.9 0 1 1-33.791 0V74.811a16.9 16.9 0 1 1 33.791 0zm41.9 4.234V112.8a16.9 16.9 0 1 1-33.791 0v-38a16.9 16.9 0 1 1 33.791 0zm42.6 3.173a16.99 16.99 0 0 1-16.5 16.75h-6.408v26.72h-10.881V58.266h16.915a16.99 16.99 0 0 1 16.874 16.9zm19.155 43.47h-10.881V58.266H180.7zm37.593-61.624-18.161 50.822h18.161v10.8h-30v-9.437l18.214-50.822H188.3v-10.8h30zm37.064 0L237.2 118.528h18.161v10.8h-30v-9.438l18.215-50.822h-18.214v-10.8h30zm32.787 61.624-3.973-18.407h-11.32l-3.973 18.407h-10.986l14.914-71.04v-.023l5.706.011 5.706-.011-.006.023h.006l14.914 71.04z" transform="translate(2.133 2.125)" style="fill:#ff4600"/>
                        <path data-name="패스 3084" d="M250.326 0H96.734C43.394 0 0 43.076 0 96.024a95.036 95.036 0 0 0 28.333 67.9 96.449 96.449 0 0 0 68.4 28.125h153.68c53.282-.064 96.618-43.122 96.618-96.024C347.032 43.091 303.649.015 250.326 0m0 187.316H96.734c-50.792 0-91.969-40.874-91.969-91.293S45.942 4.732 96.734 4.732h153.589c50.782.013 91.943 40.881 91.943 91.292s-41.159 91.276-91.938 91.292" transform="translate(-.19 -.103)" style="fill:#ff4600"/>
                    </g>
                </g>
            </g>
        </g>
    </g>
</svg>
