<svg xmlns="http://www.w3.org/2000/svg" width="621" height="394.5" viewBox="0 0 621 394.5">
    <defs>
        <clipPath id="abs9mffrca">
            <path data-name="사각형 1119" style="fill:none" d="M0 0h283.469v80.328H0z"/>
        </clipPath>
    </defs>
    <g data-name="그룹 5203">
        <text data-name="brand LOGO_type ver." transform="translate(.5 20)" style="font-size:20px;font-family:SolanoGothicProMVB-Bd,Solano Gothic Pro MVB"><tspan x="0" y="0">BRAND LOGO_TYPE VER.</tspan></text>
        <g data-name="그룹 5166">
            <g data-name="그룹 5164">
                <g data-name="그룹 4172">
                    <path data-name="선 3" transform="translate(.5 34)" style="stroke:#ededed;fill:none" d="M0 0v360"/>
                    <path data-name="선 66" transform="translate(342.5 34)" style="stroke:#ededed;fill:none" d="M0 0v360"/>
                    <path data-name="선 34" transform="translate(171.5 34)" style="stroke:#ededed;fill:none" d="M0 0v360"/>
                    <path data-name="선 50" transform="translate(513.5 34)" style="stroke:#ededed;fill:none" d="M0 0v360"/>
                    <path data-name="선 18" transform="translate(86.5 34)" style="stroke:#ededed;fill:none" d="M0 0v360"/>
                    <path data-name="선 58" transform="translate(428.5 34)" style="stroke:#ededed;fill:none" d="M0 0v360"/>
                    <path data-name="선 26" transform="translate(257.5 34)" style="stroke:#ededed;fill:none" d="M0 0v360"/>
                    <path data-name="선 40" transform="translate(599.5 34)" style="stroke:#ededed;fill:none" d="M0 0v360"/>
                    <path data-name="선 10" transform="translate(43.5 34)" style="stroke:#ededed;fill:none" d="M0 0v360"/>
                    <path data-name="선 62" transform="translate(385.5 34)" style="stroke:#ededed;fill:none" d="M0 0v360"/>
                    <path data-name="선 30" transform="translate(214.5 34)" style="stroke:#ededed;fill:none" d="M0 0v360"/>
                    <path data-name="선 45" transform="translate(556.5 34)" style="stroke:#ededed;fill:none" d="M0 0v360"/>
                    <path data-name="선 14" transform="translate(128.5 34)" style="stroke:#ededed;fill:none" d="M0 0v360"/>
                    <path data-name="선 54" transform="translate(470.5 34)" style="stroke:#ededed;fill:none" d="M0 0v360"/>
                    <path data-name="선 22" transform="translate(299.5 34)" style="stroke:#ededed;fill:none" d="M0 0v360"/>
                    <path data-name="선 6" transform="translate(21.5 34)" style="stroke:#ededed;fill:none" d="M0 0v360"/>
                    <path data-name="선 64" transform="translate(363.5 34)" style="stroke:#ededed;fill:none" d="M0 0v360"/>
                    <path data-name="선 32" transform="translate(192.5 34)" style="stroke:#ededed;fill:none" d="M0 0v360"/>
                    <path data-name="선 46" transform="translate(534.5 34)" style="stroke:#ededed;fill:none" d="M0 0v360"/>
                    <path data-name="선 16" transform="translate(107.5 34)" style="stroke:#ededed;fill:none" d="M0 0v360"/>
                    <path data-name="선 56" transform="translate(449.5 34)" style="stroke:#ededed;fill:none" d="M0 0v360"/>
                    <path data-name="선 23" transform="translate(278.5 34)" style="stroke:#ededed;fill:none" d="M0 0v360"/>
                    <path data-name="선 8" transform="translate(64.5 34)" style="stroke:#ededed;fill:none" d="M0 0v360"/>
                    <path data-name="선 60" transform="translate(406.5 34)" style="stroke:#ededed;fill:none" d="M0 0v360"/>
                    <path data-name="선 27" transform="translate(235.5 34)" style="stroke:#ededed;fill:none" d="M0 0v360"/>
                    <path data-name="선 42" transform="translate(577.5 34)" style="stroke:#ededed;fill:none" d="M0 0v360"/>
                    <path data-name="선 12" transform="translate(150.5 34)" style="stroke:#ededed;fill:none" d="M0 0v360"/>
                    <path data-name="선 52" transform="translate(492.5 34)" style="stroke:#ededed;fill:none" d="M0 0v360"/>
                    <path data-name="선 20" transform="translate(321.5 34)" style="stroke:#ededed;fill:none" d="M0 0v360"/>
                    <path data-name="선 4" transform="translate(11.5 34)" style="stroke:#ededed;fill:none" d="M0 0v360"/>
                    <path data-name="선 65" transform="translate(353.5 34)" style="stroke:#ededed;fill:none" d="M0 0v360"/>
                    <path data-name="선 33" transform="translate(182.5 34)" style="stroke:#ededed;fill:none" d="M0 0v360"/>
                    <path data-name="선 49" transform="translate(524.5 34)" style="stroke:#ededed;fill:none" d="M0 0v360"/>
                    <path data-name="선 17" transform="translate(96.5 34)" style="stroke:#ededed;fill:none" d="M0 0v360"/>
                    <path data-name="선 57" transform="translate(438.5 34)" style="stroke:#ededed;fill:none" d="M0 0v360"/>
                    <path data-name="선 24" transform="translate(267.5 34)" style="stroke:#ededed;fill:none" d="M0 0v360"/>
                    <path data-name="선 43" transform="translate(609.5 34)" style="stroke:#ededed;fill:none" d="M0 0v360"/>
                    <path data-name="선 9" transform="translate(53.5 34)" style="stroke:#ededed;fill:none" d="M0 0v360"/>
                    <path data-name="선 61" transform="translate(396.5 34)" style="stroke:#ededed;fill:none" d="M0 0v360"/>
                    <path data-name="선 28" transform="translate(224.5 34)" style="stroke:#ededed;fill:none" d="M0 0v360"/>
                    <path data-name="선 47" transform="translate(567.5 34)" style="stroke:#ededed;fill:none" d="M0 0v360"/>
                    <path data-name="선 13" transform="translate(139.5 34)" style="stroke:#ededed;fill:none" d="M0 0v360"/>
                    <path data-name="선 53" transform="translate(481.5 34)" style="stroke:#ededed;fill:none" d="M0 0v360"/>
                    <path data-name="선 21" transform="translate(310.5 34)" style="stroke:#ededed;fill:none" d="M0 0v360"/>
                    <path data-name="선 5" transform="translate(32.5 34)" style="stroke:#ededed;fill:none" d="M0 0v360"/>
                    <path data-name="선 63" transform="translate(374.5 34)" style="stroke:#ededed;fill:none" d="M0 0v360"/>
                    <path data-name="선 31" transform="translate(203.5 34)" style="stroke:#ededed;fill:none" d="M0 0v360"/>
                    <path data-name="선 48" transform="translate(545.5 34)" style="stroke:#ededed;fill:none" d="M0 0v360"/>
                    <path data-name="선 15" transform="translate(118.5 34)" style="stroke:#ededed;fill:none" d="M0 0v360"/>
                    <path data-name="선 55" transform="translate(460.5 34)" style="stroke:#ededed;fill:none" d="M0 0v360"/>
                    <path data-name="선 25" transform="translate(289.5 34)" style="stroke:#ededed;fill:none" d="M0 0v360"/>
                    <path data-name="선 7" transform="translate(75.5 34)" style="stroke:#ededed;fill:none" d="M0 0v360"/>
                    <path data-name="선 59" transform="translate(417.5 34)" style="stroke:#ededed;fill:none" d="M0 0v360"/>
                    <path data-name="선 29" transform="translate(246.5 34)" style="stroke:#ededed;fill:none" d="M0 0v360"/>
                    <path data-name="선 44" transform="translate(588.5 34)" style="stroke:#ededed;fill:none" d="M0 0v360"/>
                    <path data-name="선 11" transform="translate(160.5 34)" style="stroke:#ededed;fill:none" d="M0 0v360"/>
                    <path data-name="선 51" transform="translate(502.5 34)" style="stroke:#ededed;fill:none" d="M0 0v360"/>
                    <path data-name="선 19" transform="translate(331.5 34)" style="stroke:#ededed;fill:none" d="M0 0v360"/>
                    <path data-name="선 66" transform="rotate(90 118.537 501.537)" style="stroke:#ededed;fill:none" d="M0 0v619.574"/>
                    <path data-name="선 34" transform="rotate(90 208.537 411.537)" style="stroke:#ededed;fill:none" d="M0 0v619.574"/>
                    <path data-name="선 18" transform="rotate(90 250.537 369.537)" style="stroke:#ededed;fill:none" d="M0 0v619.574"/>
                    <path data-name="선 26" transform="rotate(90 166.037 454.037)" style="stroke:#ededed;fill:none" d="M0 0v619.574"/>
                    <path data-name="선 10" transform="rotate(90 272.037 348.037)" style="stroke:#ededed;fill:none" d="M0 0v619.574"/>
                    <path data-name="선 30" transform="rotate(90 187.037 433.037)" style="stroke:#ededed;fill:none" d="M0 0v619.574"/>
                    <path data-name="선 14" transform="rotate(90 229.537 390.537)" style="stroke:#ededed;fill:none" d="M0 0v619.574"/>
                    <path data-name="선 22" transform="rotate(90 145.037 475.037)" style="stroke:#ededed;fill:none" d="M0 0v619.574"/>
                    <path data-name="선 6" transform="rotate(90 282.537 337.537)" style="stroke:#ededed;fill:none" d="M0 0v619.574"/>
                    <path data-name="선 64" transform="rotate(90 123.75 496.75)" style="stroke:#ededed;fill:none" d="M0 0v620"/>
                    <path data-name="선 32" transform="rotate(90 197.537 422.537)" style="stroke:#ededed;fill:none" d="M0 0v619.574"/>
                    <path data-name="선 16" transform="rotate(90 240.037 380.037)" style="stroke:#ededed;fill:none" d="M0 0v619.574"/>
                    <path data-name="선 23" transform="rotate(90 155.537 464.537)" style="stroke:#ededed;fill:none" d="M0 0v619.574"/>
                    <path data-name="선 8" transform="rotate(90 261.037 359.037)" style="stroke:#ededed;fill:none" d="M0 0v619.574"/>
                    <path data-name="선 27" transform="rotate(90 176.537 443.537)" style="stroke:#ededed;fill:none" d="M0 0v619.574"/>
                    <path data-name="선 12" transform="rotate(90 219.037 401.037)" style="stroke:#ededed;fill:none" d="M0 0v619.574"/>
                    <path data-name="선 20" transform="rotate(90 134.037 486.037)" style="stroke:#ededed;fill:none" d="M0 0v619.574"/>
                    <path data-name="선 4" transform="rotate(90 287.537 332.537)" style="stroke:#ededed;fill:none" d="M0 0v619.574"/>
                    <path data-name="선 65" transform="rotate(90 113.037 507.037)" style="stroke:#ededed;fill:none" d="M0 0v619.574"/>
                    <path data-name="선 33" transform="rotate(90 203.037 417.037)" style="stroke:#ededed;fill:none" d="M0 0v619.574"/>
                    <path data-name="선 17" transform="rotate(90 245.537 374.537)" style="stroke:#ededed;fill:none" d="M0 0v619.574"/>
                    <path data-name="선 24" transform="rotate(90 160.537 459.537)" style="stroke:#ededed;fill:none" d="M0 0v619.574"/>
                    <path data-name="선 9" transform="rotate(90 266.537 353.537)" style="stroke:#ededed;fill:none" d="M0 0v619.574"/>
                    <path data-name="선 28" transform="rotate(90 182.037 438.037)" style="stroke:#ededed;fill:none" d="M0 0v619.574"/>
                    <path data-name="선 13" transform="rotate(90 224.037 396.037)" style="stroke:#ededed;fill:none" d="M0 0v619.574"/>
                    <path data-name="선 21" transform="rotate(90 139.537 480.537)" style="stroke:#ededed;fill:none" d="M0 0v619.574"/>
                    <path data-name="선 5" transform="rotate(90 277.037 343.037)" style="stroke:#ededed;fill:none" d="M0 0v619.574"/>
                    <path data-name="선 31" transform="rotate(90 192.537 427.537)" style="stroke:#ededed;fill:none" d="M0 0v619.574"/>
                    <path data-name="선 15" transform="rotate(90 235.037 385.037)" style="stroke:#ededed;fill:none" d="M0 0v619.574"/>
                    <path data-name="선 25" transform="rotate(90 150.037 470.037)" style="stroke:#ededed;fill:none" d="M0 0v619.574"/>
                    <path data-name="선 7" transform="rotate(90 256.037 364.037)" style="stroke:#ededed;fill:none" d="M0 0v619.574"/>
                    <path data-name="선 29" transform="rotate(90 171.037 449.037)" style="stroke:#ededed;fill:none" d="M0 0v619.574"/>
                    <path data-name="선 11" transform="rotate(90 213.537 406.537)" style="stroke:#ededed;fill:none" d="M0 0v619.574"/>
                    <path data-name="선 19" transform="rotate(90 129.037 491.037)" style="stroke:#ededed;fill:none" d="M0 0v619.574"/>
                </g>
                <path data-name="선 190" transform="translate(620.5 34)" style="stroke:#ededed;fill:none" d="M0 0v360"/>
                <path data-name="선 191" transform="rotate(90 293.25 327.25)" style="stroke:#ededed;fill:none" d="M0 0v620"/>
            </g>
            <g data-name="img_brand_our story_BI-typelogo">
                <g data-name="그룹 4235" style="clip-path:url(#abs9mffrca)" transform="translate(168.5 174)">
                    <path data-name="패스 6308" d="M112.353.51H93.612v79.309h12.054V50h7.1a18.894 18.894 0 0 0 18.278-18.693V19.369A18.891 18.891 0 0 0 112.353.51m-.515 37.434h-6.171V12.565h6.275a6.415 6.415 0 0 1 6.415 6.415v12.445a6.519 6.519 0 0 1-6.519 6.519" style="fill:#ff4600"/>
                    <path data-name="패스 6309" d="M65.133 0a18.9 18.9 0 0 0-18.717 18.961v42.405a18.719 18.719 0 1 0 37.434 0V18.961A18.9 18.9 0 0 0 65.133 0m6.662 29.809v31.71a6.662 6.662 0 1 1-13.323 0V18.808a6.662 6.662 0 1 1 13.323 0v11z" style="fill:#ff4600"/>
                    <path data-name="사각형 1118" transform="translate(140.213 .51)" style="fill:#ff4600" d="M0 0h12.055v79.308H0z"/>
                    <path data-name="패스 6310" d="M18.717.024A18.89 18.89 0 0 0 0 18.974v42.38a18.891 18.891 0 0 0 18.717 18.951 18.891 18.891 0 0 0 18.718-18.951V36.362H18.4v12.055h6.979v12.492a6.662 6.662 0 0 1-13.324 0V19.02a6.662 6.662 0 0 1 13.324 0v4.018h12.056v-4.064A18.89 18.89 0 0 0 18.717.024" style="fill:#ff4600"/>
                    <path data-name="패스 6311" d="M173.795 67.763h20.119v12.055h-33.23V69.284l20.177-56.719h-20.177V.51h33.23v10.534z" style="fill:#ff4600"/>
                    <path data-name="패스 6312" d="M214.856 67.763h20.119v12.055h-33.23V69.284l20.178-56.719h-20.178V.51h33.23v10.534z" style="fill:#ff4600"/>
                    <path data-name="패스 6313" d="M266.947.536h-.006l.006-.025-6.321.012L254.3.511l.005.025h-.005l-16.518 79.282h12.171l4.4-20.543H266.9l4.4 20.543h12.171zM264.288 47.1h-8.918l5.255-27.126 5.253 27.126z" style="fill:#ff4600"/>
                </g>
            </g>
        </g>
    </g>
</svg>
