<svg xmlns="http://www.w3.org/2000/svg" width="45.383" height="28.77" viewBox="0 0 45.383 28.77">
    <defs>
        <clipPath id="oxxjxysi0a">
            <path data-name="사각형 974" d="M0 0h45.383v28.77H0z"/>
        </clipPath>
    </defs>
    <g data-name="그룹 3988" style="opacity:.2">
        <g data-name="그룹 3986" style="clip-path:url(#oxxjxysi0a)">
            <path data-name="패스 3670" d="M21.191 10.2C20.827 1.311 9.92-3.319 3.343 2.755-3.022 8.631.209 19.621 8.765 21.076a11.443 11.443 0 0 1-3.152 7.694c9.378-.591 15.828-9.606 15.578-18.57-.014-.34 0 .05 0 0"/>
            <path data-name="패스 3671" d="M45.375 10.2C45.01 1.311 34.103-3.319 27.526 2.755c-6.365 5.876-3.134 16.867 5.422 18.321a11.442 11.442 0 0 1-3.153 7.694c9.388-.591 15.828-9.606 15.58-18.57-.014-.34 0 .05 0 0"/>
        </g>
    </g>
</svg>
