<svg xmlns="http://www.w3.org/2000/svg" width="45.383" height="28.77" viewBox="0 0 45.383 28.77">
    <defs>
        <clipPath id="jd9vnhodpa">
            <path data-name="사각형 974" d="M0 0h45.383v28.77H0z"/>
        </clipPath>
    </defs>
    <g data-name="그룹 3987" style="opacity:.2">
        <g data-name="그룹 3986" style="clip-path:url(#jd9vnhodpa)">
            <path data-name="패스 3670" d="M24.19 18.572c.366 8.887 11.272 13.517 17.849 7.443 6.366-5.876 3.135-16.866-5.421-18.321A11.443 11.443 0 0 1 39.774 0C30.388.591 23.942 9.606 24.19 18.572c.014.34 0-.05 0 0"/>
            <path data-name="패스 3671" d="M.007 18.572c.366 8.887 11.272 13.517 17.849 7.443 6.365-5.876 3.135-16.866-5.422-18.321A11.442 11.442 0 0 1 15.588 0C6.2.591-.241 9.606.007 18.572c.014.34 0-.05 0 0"/>
        </g>
    </g>
</svg>
