<svg xmlns="http://www.w3.org/2000/svg" width="48" height="48" viewBox="0 0 48 48">
    <defs>
        <clipPath id="v3kf9c1k7a">
            <path data-name="사각형 1288" style="fill:#fff" d="M0 0h24.243v29.205H0z"/>
        </clipPath>
    </defs>
    <g transform="translate(-1454 -474)">
        <rect data-name="사각형 1234" width="48" height="48" rx="4" transform="translate(1454 474)" style="fill:#ff4600"/>
        <g data-name="그룹 4659">
            <g data-name="그룹 4660" transform="translate(1465.757 483.117)" style="clip-path:url(#v3kf9c1k7a)">
                <path data-name="패스 6634" d="M16.086 12.084a.682.682 0 1 1 0-1.364h6.368a1.791 1.791 0 0 1 1.789 1.789v14.907a1.777 1.777 0 0 1-.525 1.261 1.782 1.782 0 0 1-1.264.525H1.789A1.791 1.791 0 0 1 0 27.416V12.509a1.791 1.791 0 0 1 1.789-1.789h6.368a.682.682 0 1 1 0 1.364H1.789a.426.426 0 0 0-.424.424v14.908a.426.426 0 0 0 .424.424h20.665a.427.427 0 0 0 .3-.125.425.425 0 0 0 .124-.3V12.509a.426.426 0 0 0-.424-.424zM12.8 20.637a.682.682 0 1 1-1.364 0V2.33L6.747 7.022a.682.682 0 0 1-.964-.964L11.639.2l.011-.012.011-.011.01-.009.01-.009a.835.835 0 0 1 .099-.068h.051A.706.706 0 0 1 12.055 0h.13a.685.685 0 0 1 .22.059h.051a.8.8 0 0 1 .093.064l.009.009.01.009.011.011L12.6.2l5.857 5.857a.682.682 0 0 1-.964.964L12.8 2.33z" style="fill:#fff"/>
            </g>
        </g>
    </g>
</svg>
